<?xml version="1.0" encoding="UTF-8"?>
<svg version="1.1" xmlns="http://www.w3.org/2000/svg" width="476" height="338">
<path d="M0 0 C5.33996024 3.09155593 8.44666624 7.32356637 10.328125 13.203125 C10.328125 16.078125 10.328125 16.078125 8.640625 18.390625 C5.07168472 20.99498683 5.07168472 20.99498683 2.328125 21.078125 C-1.56590162 19.31654153 -2.82065411 17.78056678 -4.671875 14.078125 C-6.69495405 13.43551989 -6.69495405 13.43551989 -8.671875 13.078125 C-9.17336055 19.51064155 -9.39976626 25.36217898 -5.21484375 30.515625 C-2.661598 33.30426756 0.07023617 35.91055966 2.79638672 38.52880859 C7.74772981 43.53697297 11.93676437 49.44861037 14.328125 56.078125 C23.38659063 49.15299133 23.38659063 49.15299133 32.328125 42.078125 C33.99427304 40.74414364 35.66096029 39.41083554 37.328125 38.078125 C38.69904297 36.97597656 38.69904297 36.97597656 40.09765625 35.8515625 C50.09008702 27.97562862 60.63595444 20.96417332 71.328125 14.078125 C72.00584961 13.63597656 72.68357422 13.19382812 73.38183594 12.73828125 C86.08693339 4.53276569 98.22924326 1.77523246 113.140625 1.640625 C114.55396118 1.62515625 114.55396118 1.62515625 115.99584961 1.609375 C129.86330971 1.78415962 140.97429635 6.21055846 151.00390625 15.671875 C158.12426039 23.04353575 161.31311299 31.43248896 164.328125 41.078125 C164.64716797 42.09712891 164.64716797 42.09712891 164.97265625 43.13671875 C167.25511149 55.60243581 161.81438676 71.57020324 154.9921875 81.9609375 C149.18034957 89.35534163 142.50356189 93.60364477 133.140625 95.015625 C129.6948066 95.27301083 128.67346023 95.28693235 125.640625 93.453125 C124.328125 91.078125 124.328125 91.078125 124.265625 88.640625 C126.18952293 84.00063587 129.68180405 81.47075922 133.828125 78.890625 C138.84898788 75.44837403 141.07050716 69.87516347 142.9375 64.23828125 C145.09275915 52.31969815 143.20121691 42.02139546 136.87109375 31.703125 C132.96269252 26.09317707 128.28672568 22.00765081 121.453125 20.40234375 C104.05381305 17.74766932 84.45043859 22.77774822 70.328125 33.078125 C62.67275274 38.92210365 55.84951833 45.49988898 49.140625 52.390625 C40.74633933 60.99707009 31.34420299 67.83783927 19.328125 70.078125 C19.30234375 71.39425781 19.2765625 72.71039063 19.25 74.06640625 C18.89003106 86.75953924 18.4372576 97.81036313 9.17578125 107.42578125 C2.18306141 113.67931295 -5.41383678 115.34353859 -14.6081543 114.95483398 C-31.98626829 113.91921093 -31.98626829 113.91921093 -38.671875 107.078125 C-41.52582322 102.43452753 -42.13796529 98.48964943 -42.046875 93.140625 C-42.05847656 92.46322266 -42.07007813 91.78582031 -42.08203125 91.08789062 C-42.03875661 83.5653149 -39.49019567 78.32531543 -34.234375 73.078125 C-28.96003261 67.98297001 -23.15492904 64.44218397 -16.671875 61.078125 C-17.30416016 60.17320312 -17.30416016 60.17320312 -17.94921875 59.25 C-18.77099609 58.05117187 -18.77099609 58.05117187 -19.609375 56.828125 C-20.42728516 55.64476562 -20.42728516 55.64476562 -21.26171875 54.4375 C-22.56809941 52.25175507 -23.22168011 50.5627449 -23.671875 48.078125 C-27.92629695 51.64634986 -31.74163287 55.12246877 -35.2109375 59.4765625 C-41.19488206 66.03650172 -49.86758084 72.78576263 -58.671875 74.74609375 C-62.84529154 76.59913417 -64.0227312 79.5923168 -65.921875 83.515625 C-71.98625343 95.09035543 -78.90539769 103.82263256 -91.671875 108.078125 C-97.67779251 108.61565979 -102.50129435 108.52517877 -107.671875 105.078125 C-108.001875 104.418125 -108.331875 103.758125 -108.671875 103.078125 C-108.66188225 104.52153763 -108.66188225 104.52153763 -108.65168762 105.99411011 C-108.5904005 115.14190764 -108.54567686 124.28966256 -108.51643848 133.43762016 C-108.50090057 138.13867747 -108.47988452 142.83956671 -108.44555664 147.54052734 C-108.412533 152.09229262 -108.3949332 156.64389808 -108.38724327 161.19577408 C-108.38177575 162.9169783 -108.37110404 164.63817556 -108.35468483 166.35931015 C-108.13844164 190.00585985 -111.47522379 215.98232899 -128.33203125 234.00390625 C-137.85766506 242.44816594 -147.88704589 245.62164555 -160.42578125 245.3828125 C-165.60646079 244.89653933 -167.906066 243.05394526 -171.28125 239.27734375 C-179.9352233 228.66592411 -178.68400537 214.56560593 -177.43164062 201.58886719 C-174.39562355 178.50933609 -161.66526714 146.05128419 -143.09616089 130.98881531 C-139.94893192 127.2101319 -139.95517323 124.17017236 -139.99658203 119.46411133 C-139.97844704 118.18036369 -139.97844704 118.18036369 -139.95994568 116.87068176 C-139.92612816 114.05016474 -139.92752674 111.2308565 -139.9296875 108.41015625 C-139.91402937 106.44909485 -139.8963311 104.48804876 -139.87667847 102.52702332 C-139.84042907 98.42232672 -139.82003076 94.31798334 -139.8125 90.21313477 C-139.80281575 84.94337296 -139.76735677 79.6742154 -139.72183418 74.4046526 C-139.67908319 69.38569994 -139.64694802 64.36670072 -139.6171875 59.34765625 C-139.60794439 57.90539641 -139.60794439 57.90539641 -139.59851456 56.43400002 C-139.58351645 53.7239667 -139.57582243 51.01402306 -139.57080078 48.30395508 C-139.56570999 47.49613586 -139.5606192 46.68831665 -139.55537415 45.85601807 C-139.46323984 41.83689339 -139.46323984 41.83689339 -140.671875 38.078125 C-141.17074219 38.72136719 -141.66960937 39.36460938 -142.18359375 40.02734375 C-162.61859653 65.74536341 -188.92060552 80.98829634 -219.56835938 92.30126953 C-221.4276631 92.98793439 -223.27717225 93.70099486 -225.125 94.41796875 C-242.59428731 100.84319091 -263.70239608 98.98275011 -280.703125 91.796875 C-294.78751564 84.67555389 -304.02481326 73.40056342 -308.9609375 58.5078125 C-312.35518623 46.90768773 -310.35856106 37.61949801 -305.12890625 26.921875 C-299.20640068 16.18818069 -290.28145756 5.89597252 -278.07421875 2.31640625 C-273.93820507 1.69096028 -273.93820507 1.69096028 -271.671875 2.078125 C-269.921875 3.5859375 -269.921875 3.5859375 -268.671875 5.078125 C-270.61543663 10.39734631 -272.12985202 12.59238643 -276.671875 16.078125 C-284.75960969 25.16640418 -288.07992181 34.72374007 -287.9453125 46.7578125 C-287.25690154 55.11708841 -282.77237422 61.5311896 -276.671875 67.078125 C-264.04401441 76.74269929 -250.68399178 79.292348 -235.0612793 77.24755859 C-200.21359886 71.82382674 -167.68470535 48.6974233 -146.671875 21.078125 C-145.82689453 19.97984375 -145.82689453 19.97984375 -144.96484375 18.859375 C-142.07094632 15.06553004 -142.07094632 15.06553004 -139.4765625 11.06640625 C-137.22433017 7.38974883 -136.38883873 6.26354666 -132.046875 5.140625 C-130.58944601 5.08520945 -129.13032407 5.06830379 -127.671875 5.078125 C-126.74117187 5.04203125 -125.81046875 5.0059375 -124.8515625 4.96875 C-116.61200661 4.74902851 -116.61200661 4.74902851 -112.671875 7.078125 C-112.671875 9.718125 -112.671875 12.358125 -112.671875 15.078125 C-111.94484375 14.40716797 -111.94484375 14.40716797 -111.203125 13.72265625 C-102.85974062 6.19756534 -96.23746475 1.59387832 -84.73828125 1.74609375 C-77.22971566 2.55912314 -72.22481451 7.86296369 -67.5 13.40625 C-62.25675 21.06946154 -59.52258022 30.35435865 -59.57421875 39.59765625 C-59.57744141 40.61923828 -59.58066406 41.64082031 -59.58398438 42.69335938 C-59.59236328 43.74845703 -59.60074219 44.80355469 -59.609375 45.890625 C-59.61388672 46.96505859 -59.61839844 48.03949219 -59.62304688 49.14648438 C-59.63479771 51.79042183 -59.65122713 54.43424452 -59.671875 57.078125 C-47.55241325 52.65643568 -40.22699532 45.54261796 -34.25390625 34.04296875 C-32.0111223 29.06730634 -31.55764891 23.87801217 -31.32641602 18.47094727 C-31.02087558 12.32341827 -29.46048763 6.91185 -25.04199219 2.421875 C-18.6698519 -2.86327571 -7.52167172 -2.59519668 0 0 Z M-102.99926758 26.18945312 C-111.68570075 35.93551172 -110.72395292 45.82900582 -110.234375 58.328125 C-110.18914935 60.34496207 -110.14809907 62.36189732 -110.11132812 64.37890625 C-110.01296839 69.28110396 -109.8581418 74.17851224 -109.671875 79.078125 C-109.14404419 78.67210052 -108.61621338 78.26607605 -108.0723877 77.8477478 C-107.36851929 77.31195099 -106.66465088 76.77615417 -105.93945312 76.22412109 C-105.24662231 75.69434662 -104.5537915 75.16457214 -103.83996582 74.6187439 C-100.48128642 72.23210727 -96.88264957 70.46989911 -93.171875 68.703125 C-91.83370202 68.05706238 -90.49583122 67.41037362 -89.15820312 66.76318359 C-88.00771484 66.20711426 -86.85722656 65.65104492 -85.671875 65.078125 C-85.59723783 60.24010521 -85.54304486 55.40242696 -85.50708008 50.56396484 C-85.49207364 48.92100174 -85.47166188 47.27807814 -85.44555664 45.63525391 C-85.40881141 43.26194458 -85.39206728 40.88916875 -85.37890625 38.515625 C-85.36342239 37.79133301 -85.34793854 37.06704102 -85.33198547 36.32080078 C-85.3302511 30.96198139 -86.48198557 26.98166711 -88.671875 22.078125 C-89.331875 21.418125 -89.991875 20.758125 -90.671875 20.078125 C-96.04570027 20.078125 -99.17645483 22.72153278 -102.99926758 26.18945312 Z M-23.40234375 81.7421875 C-26.68531429 85.65094421 -27.82279731 88.04503469 -27.859375 93.078125 C-27.87355469 93.965 -27.88773437 94.851875 -27.90234375 95.765625 C-27.89900626 98.27332484 -27.89900626 98.27332484 -25.671875 100.078125 C-21.4782362 100.6426533 -19.26018074 100.40757622 -15.546875 98.328125 C-10.91045166 93.96589874 -8.26925758 87.01541927 -7.328125 80.8125 C-7.28520249 78.25861051 -7.52446313 76.37294874 -8.671875 74.078125 C-14.19457928 74.078125 -19.49064355 77.98059769 -23.40234375 81.7421875 Z M-96.671875 82.078125 C-99.62045301 85.13200937 -100.39670306 87.85882197 -100.671875 92.078125 C-100.011875 92.738125 -99.351875 93.398125 -98.671875 94.078125 C-96.66392379 94.11971796 -96.66392379 94.11971796 -94.671875 93.078125 C-92.87802833 90.92594581 -92.87802833 90.92594581 -91.421875 88.265625 C-90.90109375 87.39292969 -90.3803125 86.52023438 -89.84375 85.62109375 C-88.39285681 82.93932162 -88.39285681 82.93932162 -88.671875 79.078125 C-92.33372024 79.078125 -93.699935 79.997767 -96.671875 82.078125 Z M-138.671875 149.078125 C-153.70177368 169.18242677 -163.54959675 190.85342088 -163.859375 216.203125 C-163.87250732 216.8724707 -163.88563965 217.54181641 -163.89916992 218.23144531 C-163.90654583 222.83174041 -163.21113692 226.74658795 -161.671875 231.078125 C-161.011875 231.738125 -160.351875 232.398125 -159.671875 233.078125 C-154.66722272 233.078125 -151.80309229 231.14805605 -148.2734375 227.8671875 C-140.71109302 219.41949537 -139.27972179 206.68230099 -138.546875 195.828125 C-138.47049805 194.78197021 -138.39412109 193.73581543 -138.31542969 192.65795898 C-137.73538913 184.19245214 -137.32462734 175.71757742 -137.00201416 167.23864746 C-136.94868945 165.84262023 -136.89250709 164.44669916 -136.83343506 163.05090332 C-136.75297042 161.09294992 -136.68862244 159.13435426 -136.625 157.17578125 C-136.58536133 156.04664307 -136.54572266 154.91750488 -136.50488281 153.75415039 C-136.3852489 150.92362174 -136.3852489 150.92362174 -138.671875 149.078125 Z " fill="#E6D19F" transform="translate(310.671875,79.921875)"/>
<path d="M0 0 C1.01266733 4.18389631 1.11933577 8.10060271 1.10920715 12.39871216 C1.10859686 13.50216297 1.10859686 13.50216297 1.10797423 14.62790573 C1.10528116 17.0880728 1.09527339 19.54815364 1.08520508 22.00830078 C1.08160802 23.77441841 1.07840333 25.54053688 1.07556152 27.30665588 C1.06619446 32.10242588 1.04985943 36.89814616 1.03119111 41.69388819 C1.01954052 44.69292517 1.00887711 47.69196425 0.99844933 50.69100571 C0.96521369 60.08243773 0.92717095 69.47383474 0.88308412 78.8652221 C0.83240622 89.69068294 0.79813117 100.51603335 0.77790338 111.34159291 C0.76119295 119.71894525 0.72927894 128.09615624 0.68605727 136.47341335 C0.66062819 141.47208934 0.64163603 146.47058956 0.63868141 151.46933365 C0.63551518 156.17596244 0.61339838 160.88213472 0.57712555 165.58862114 C0.56706434 167.30941473 0.56365984 169.0302631 0.56765556 170.75108147 C0.58532863 180.17202889 0.09388796 188.31574173 -4 197 C-4.28015048 197.65762896 -4.56030096 198.31525791 -4.84894085 198.99281502 C-9.54127712 209.8244487 -15.78492851 218.7908389 -26 225 C-26.99 225 -27.98 225 -29 225 C-29.33 225.66 -29.66 226.32 -30 227 C-38.86178144 230.95615243 -47.65868689 231.14997275 -57.25367737 231.13371277 C-58.74520015 231.1371111 -58.74520015 231.1371111 -60.2668547 231.14057809 C-63.57838716 231.14687736 -66.88987826 231.14609137 -70.20141602 231.14526367 C-72.58382215 231.14825761 -74.9662278 231.15166068 -77.34863281 231.15544128 C-83.13534493 231.16334458 -88.92204463 231.16649476 -94.70876188 231.16705366 C-99.41338094 231.16752997 -104.11799666 231.16959045 -108.82261467 231.17275429 C-122.17593713 231.18155102 -135.52925157 231.18617492 -148.88257695 231.18542381 C-149.60122646 231.18538386 -150.31987597 231.1853439 -151.06030273 231.18530273 C-151.77983413 231.18526185 -152.49936552 231.18522097 -153.24070089 231.18517885 C-164.91005156 231.18477212 -176.57937001 231.19435121 -188.24871136 231.2084411 C-200.24524885 231.22281131 -212.24177063 231.22971101 -224.23831695 231.22884732 C-230.96777105 231.2285157 -237.69719132 231.2312481 -244.42663765 231.24202538 C-250.75252417 231.25170194 -257.07833918 231.25178852 -263.40422821 231.24450874 C-265.72457165 231.24346253 -268.04491954 231.24582798 -270.36525536 231.2518692 C-273.53468981 231.25958635 -276.70387714 231.25494606 -279.87330627 231.24723816 C-280.7893649 231.25238172 -281.70542353 231.25752529 -282.64924151 231.26282471 C-298.89924321 231.17560871 -315.04489706 223.30444262 -326.79296875 212.32421875 C-336.56972742 201.79346841 -339.32848792 189.89423346 -339.22705078 175.97241211 C-339.22734283 174.90795868 -339.22763489 173.84350525 -339.22793579 172.74679565 C-339.2265515 169.25689307 -339.21103279 165.76720867 -339.1953125 162.27734375 C-339.19157917 159.84640113 -339.18873371 157.415457 -339.18673706 154.98451233 C-339.17912584 148.60755204 -339.15949894 142.23068384 -339.1373291 135.85375977 C-339.11681651 129.33806605 -339.10772378 122.82235737 -339.09765625 116.30664062 C-339.07625066 103.53772128 -339.04253329 90.76886556 -339 78 C-334.64861531 75.73342358 -331.0606803 74.44059927 -326.1875 73.75 C-325.04667969 73.57984375 -323.90585937 73.4096875 -322.73046875 73.234375 C-321.37888672 73.11835938 -321.37888672 73.11835938 -320 73 C-317.91885227 75.08114773 -318.57298146 79.40533129 -318.43481445 82.27685547 C-318.39234998 83.12882444 -318.3498855 83.98079342 -318.30613422 84.85857964 C-317.91398453 93.52418578 -317.92774939 102.17381622 -318.01653099 110.84582901 C-318.04379862 113.65583313 -318.06126343 116.46575185 -318.07600403 119.27584839 C-318.11817495 127.24882844 -318.16681214 135.22163559 -318.24682617 143.19433594 C-318.29547754 148.11159371 -318.32436767 153.02863498 -318.34057045 157.94610214 C-318.35041039 159.80316364 -318.36753181 161.66020252 -318.39235497 163.51712418 C-318.81356068 176.83425191 -318.81356068 176.83425191 -314 189 C-313.47019531 190.00289062 -312.94039062 191.00578125 -312.39453125 192.0390625 C-305.87942585 202.68844465 -297.81742095 208.1430258 -286 212 C-283.77621509 212.48377075 -281.54676918 212.94222441 -279.3125 213.375 C-273.66316899 214.54686363 -270.18359114 216.55783132 -265.90234375 220.37890625 C-259.84880242 225.53746817 -252.04302997 225.23659388 -244.4375 224.9375 C-238.0446871 224.25741352 -232.8093199 221.19102097 -228.5625 216.3671875 C-225.39348667 213.59430083 -220.93482862 213.87453337 -216.89930725 213.86869812 C-215.89455353 213.86468994 -214.8897998 213.86068176 -213.854599 213.85655212 C-212.76313065 213.85708084 -211.67166229 213.85760956 -210.54711914 213.8581543 C-208.80948303 213.85294266 -208.80948303 213.85294266 -207.03674316 213.84762573 C-204.52135256 213.84027678 -202.0059555 213.83492681 -199.49055672 213.83133507 C-195.49988285 213.82415529 -191.50929281 213.8088247 -187.5186615 213.78999329 C-186.14847284 213.78365611 -184.77828413 213.77733048 -183.40809536 213.77101612 C-182.37883806 213.7662674 -182.37883806 213.7662674 -181.32878768 213.76142275 C-172.04529811 213.71948771 -162.76184941 213.68642082 -153.47827148 213.67407227 C-147.20769684 213.66564604 -140.93734032 213.64298592 -134.66687483 213.6047166 C-131.35650838 213.58510266 -128.0465347 213.57473981 -124.73610115 213.57755089 C-105.47852997 213.80287303 -105.47852997 213.80287303 -87 209 C-86.19056946 208.67503036 -85.38113892 208.35006073 -84.54718018 208.01524353 C-82.60201948 207.19572281 -80.7452673 206.2898135 -78.875 205.3125 C-78.21540283 204.97726318 -77.55580566 204.64202637 -76.8762207 204.29663086 C-71.25155614 201.33989345 -66.29888886 197.76034787 -61.35546875 193.78515625 C-59 192 -59 192 -56 191 C-56 190.34 -56 189.68 -56 189 C-55.01 188.175 -54.02 187.35 -53 186.5 C-36.10721079 172.38875439 -24.40617456 148.0272737 -19 127 C-18.75211731 126.06533401 -18.50423462 125.13066803 -18.24884033 124.16767883 C-15.67932773 113.14700356 -15.58699446 102.36992103 -15.61987495 91.0907383 C-15.62908637 87.63954494 -15.61865216 84.18888308 -15.60325623 80.73771667 C-15.56340211 70.9380254 -15.56196743 61.138382 -15.56420898 51.33862305 C-15.56425998 45.31713794 -15.54516414 39.29594651 -15.51487541 33.27454185 C-15.50404407 29.87528501 -15.51617503 26.47658571 -15.52870178 23.0773468 C-15.51980334 21.00313763 -15.50973106 18.92893304 -15.49829102 16.85473633 C-15.50803452 15.91085556 -15.51777802 14.96697479 -15.52781677 13.99449158 C-15.45734464 7.61265056 -15.45734464 7.61265056 -13.09605408 4.44950867 C-11.05596693 3.03870346 -9.27699867 2.06138682 -6.9375 1.25 C-6.26589844 1.00765625 -5.59429687 0.7653125 -4.90234375 0.515625 C-3 0 -3 0 0 0 Z " fill="#E6D19F" transform="translate(407,107)"/>
<path d="M0 0 C1.0470953 -0.00805894 2.09419061 -0.01611788 3.17301607 -0.02442104 C6.68774533 -0.04882112 10.2023653 -0.05886367 13.71716309 -0.06880188 C16.23552362 -0.08297024 18.75388004 -0.09788619 21.27223206 -0.11349487 C28.83722313 -0.15667105 36.40220123 -0.18247843 43.96728015 -0.20428273 C46.82175961 -0.21274742 49.67623482 -0.22234139 52.53071067 -0.2319377 C65.13319314 -0.27412569 77.73567917 -0.31004686 90.33821869 -0.32950115 C93.42140207 -0.3343401 96.50458538 -0.33922217 99.58776855 -0.3441925 C100.35400175 -0.3454223 101.12023495 -0.34665209 101.90968734 -0.34791914 C114.28851264 -0.36881846 126.66685857 -0.42729501 139.04546696 -0.50157502 C151.78210233 -0.57737143 164.51849445 -0.61867748 177.25535536 -0.62706596 C184.39526882 -0.63261571 191.53445777 -0.65273026 198.67414856 -0.71162987 C205.40505133 -0.76705176 212.13446164 -0.77540259 218.8656292 -0.75348473 C221.32084629 -0.75277388 223.77612744 -0.76715458 226.23114204 -0.79869461 C246.48668192 -1.04433518 263.0880177 2.79243196 278.70739746 16.30107117 C287.66346196 25.23314774 290.3447672 34.81024024 290.70739746 47.30107117 C290.64973419 57.64157139 290.19965668 67.97335592 289.70739746 78.30107117 C285.70739746 80.30107117 281.70739746 82.30107117 277.70739746 84.30107117 C275.12467175 82.39209999 274.71261228 81.32860001 274.10266113 78.10868835 C273.72602467 74.48050909 273.68319441 71.08311697 273.82067871 67.44169617 C273.85097168 66.16036804 273.88126465 64.87903992 273.91247559 63.55888367 C273.97774344 60.90011161 274.07451293 58.24801036 274.18591309 55.59013367 C274.40534634 43.75259943 270.62740521 35.65497334 262.62927246 27.01982117 C248.61797861 14.48939577 227.89506817 17.23341023 210.47839355 17.27494812 C209.11987009 17.27682117 207.76134638 17.27851984 206.40282249 17.28005695 C203.57771665 17.28355029 200.7526158 17.28815418 197.92751312 17.29362869 C193.87906477 17.30124726 189.83062051 17.30453212 185.78216553 17.30702209 C170.00609452 17.31859003 154.23030132 17.36236704 138.45438576 17.43316174 C130.57612499 17.46793787 122.6980442 17.49319873 114.81970215 17.49662781 C107.84753955 17.49968527 100.87568137 17.52035899 93.90363634 17.56159574 C90.24534332 17.58266139 86.5874806 17.59566145 82.92912674 17.58722496 C67.84941108 17.55821181 53.86671185 17.56033891 39.70739746 23.30107117 C38.5865274 23.75331558 37.46565735 24.20556 36.31082153 24.67150879 C33.45162164 25.87341388 30.67574901 27.17830512 27.89489746 28.55107117 C26.91496826 29.02850769 25.93503906 29.50594421 24.92541504 29.99784851 C17.47620317 33.71966772 11.00850087 37.81970378 4.70739746 43.30107117 C3.84372559 44.00618835 2.98005371 44.71130554 2.09020996 45.43778992 C-12.28856504 57.60948852 -22.05705257 74.70371955 -25.29260254 93.30107117 C-25.39245958 95.06367895 -25.44760393 96.82919188 -25.46618652 98.5945282 C-25.47967636 99.62554657 -25.4931662 100.65656494 -25.50706482 101.71882629 C-25.5175032 102.82104523 -25.52794159 103.92326416 -25.53869629 105.05888367 C-25.57161361 107.39873146 -25.60482559 109.73857511 -25.63830566 112.07841492 C-25.68584867 115.76312108 -25.73033305 119.44780803 -25.76940918 123.13261414 C-25.8090055 126.69154055 -25.86055553 130.2501374 -25.91369629 133.80888367 C-25.92211044 134.91515106 -25.9305246 136.02141846 -25.93919373 137.16120911 C-25.95583572 138.18592316 -25.97247772 139.21063721 -25.98962402 140.2664032 C-26.00508522 141.61945053 -26.00508522 141.61945053 -26.02085876 142.99983215 C-26.29260254 145.30107117 -26.29260254 145.30107117 -28.29260254 148.30107117 C-33.93243106 149.89335034 -43.99881805 150.94796341 -49.29260254 148.30107117 C-49.40875864 134.81811299 -49.49745112 121.33527503 -49.5516634 107.85191727 C-49.57769048 101.5901591 -49.61296311 95.32874477 -49.6697998 89.06718445 C-49.72436448 83.01765847 -49.75407482 76.96846199 -49.76698875 70.9187088 C-49.77618476 68.6175544 -49.79414198 66.31641682 -49.82125282 64.01540375 C-50.07847977 41.26639996 -50.07847977 41.26639996 -44.29260254 31.30107117 C-43.33249025 29.38529501 -42.37397916 27.46871494 -41.41760254 25.55107117 C-38.6722951 20.66895226 -35.58319865 15.96473086 -31.29260254 12.30107117 C-30.58361816 12.12833679 -29.87463379 11.95560242 -29.14416504 11.77763367 C-28.53314941 11.62036804 -27.92213379 11.46310242 -27.29260254 11.30107117 C-26.96260254 10.31107117 -26.63260254 9.32107117 -26.29260254 8.30107117 C-23.96447754 6.76591492 -23.96447754 6.76591492 -21.04260254 5.23857117 C-20.08869629 4.7319696 -19.13479004 4.22536804 -18.15197754 3.70341492 C-17.20838379 3.24064148 -16.26479004 2.77786804 -15.29260254 2.30107117 C-14.28506802 1.77200055 -14.28506802 1.77200055 -13.25717926 1.23224163 C-8.85208674 -0.15139335 -4.59190598 0.00147015 0 0 Z " fill="#E5D09D" transform="translate(117.2926025390625,-0.3010711669921875)"/>
<path d="M0 0 C0 0.66 0 1.32 0 2 C0.556875 1.2265625 0.556875 1.2265625 1.125 0.4375 C3 -1 3 -1 5.6328125 -0.80859375 C18.72585641 2.33555949 31.35363204 10.64198853 38.5 22.0625 C46.11126313 37.86719086 42.81032226 57.99924677 42 75 C36 78 36 78 30 81 C27.41727429 79.09102882 27.00521482 78.02752884 26.39526367 74.80761719 C26.01862721 71.17943793 25.97579695 67.7820458 26.11328125 64.140625 C26.14357422 62.85929687 26.17386719 61.57796875 26.20507812 60.2578125 C26.27034598 57.59904045 26.36711547 54.9469392 26.47851562 52.2890625 C26.69794887 40.45152827 22.92000775 32.35390217 14.921875 23.71875 C0.91254363 11.19007967 -19.80770991 13.93199323 -37.22241211 13.97167969 C-38.58072104 13.97345552 -39.93903017 13.9750833 -41.29733944 13.97657394 C-44.83283606 13.98100618 -48.36832297 13.98795283 -51.90381384 13.99564171 C-53.93860797 13.99987236 -55.97340176 14.00336676 -58.00819778 14.00654602 C-75.14177257 14.0338342 -92.27508094 14.09624907 -109.40844822 14.18390274 C-117.31030813 14.22389436 -125.21206285 14.25624808 -133.11401367 14.27099609 C-140.10479643 14.2840585 -147.09536476 14.3110826 -154.08602661 14.35461307 C-157.75590048 14.37701314 -161.42551255 14.39292327 -165.09546089 14.39188385 C-169.17274954 14.3909912 -173.24925828 14.4213901 -177.32641602 14.45410156 C-178.50843094 14.4490712 -179.69044586 14.44404083 -180.90827942 14.43885803 C-188.48207103 14.53234116 -194.93055594 15.8591923 -202.12524319 18.24184799 C-205 19 -205 19 -208 18 C-205.34512027 16.94806652 -202.69089543 15.9532786 -200 15 C-199.26319095 14.73407138 -198.52638189 14.46814276 -197.76724529 14.19415569 C-188.9462382 11.39875477 -180.18782204 11.55828146 -171.04418945 11.56762695 C-169.24947948 11.55859641 -167.45477566 11.54826605 -165.66007996 11.53674316 C-160.817894 11.50929873 -155.97582548 11.49990579 -151.13357186 11.49388909 C-146.06199812 11.48447259 -140.99051098 11.45826664 -135.91899109 11.43388367 C-126.32873075 11.39030487 -116.7384873 11.36170503 -107.14815825 11.33856028 C-96.22423987 11.3114623 -85.30040896 11.26755368 -74.37655318 11.22227156 C-51.91774776 11.12954879 -29.45891862 11.05840778 -7 11 C-11.62 10.34 -16.24 9.68 -21 9 C-21 8.67 -21 8.34 -21 8 C-18.36 7.67 -15.72 7.34 -13 7 C-12.979375 6.236875 -12.95875 5.47375 -12.9375 4.6875 C-12 2 -12 2 -8.75 0.125 C-5.12251113 -0.96324666 -3.51785118 -1.17261706 0 0 Z " fill="#CFBD85" transform="translate(365,3)"/>
<path d="M0 0 C1.98567708 0.29296875 3.97135417 0.5859375 5.95703125 0.87890625 C8.2025342 1.13904799 8.2025342 1.13904799 11 0 C11 0.66 11 1.32 11 2 C11.598125 2.0825 12.19625 2.165 12.8125 2.25 C15.62932273 3.21576779 16.47799132 4.48868567 18 7 C18 7.66 18 8.32 18 9 C19.36125 9.2165625 19.36125 9.2165625 20.75 9.4375 C24.95788178 11.46052009 25.57345813 13.51024457 27.23828125 17.7109375 C28.41906751 21.25935158 29.12539441 24.37536764 29.11352539 28.12597656 C29.11344986 28.92650452 29.11337433 29.72703247 29.11329651 30.55181885 C29.10813522 31.40612488 29.10297394 32.26043091 29.09765625 33.140625 C29.0962413 34.02280701 29.09482635 34.90498901 29.09336853 35.81390381 C29.08778001 38.62597065 29.07522961 41.4379573 29.0625 44.25 C29.05748352 46.15885302 29.05292087 48.06770728 29.04882812 49.9765625 C29.03781434 54.65107247 29.02055758 59.32552265 29 64 C27.56570999 64.67354499 26.12742943 65.33859701 24.6875 66 C23.48673828 66.556875 23.48673828 66.556875 22.26171875 67.125 C20 68 20 68 17 68 C17.01160156 66.95247559 17.02320313 65.90495117 17.03515625 64.82568359 C17.06814302 60.87019248 17.04752329 56.9163587 17.01220703 52.9609375 C17.00418737 51.26205194 17.00994823 49.5630348 17.03076172 47.86425781 C17.18333236 34.26138099 15.1466229 24.5392188 5.46679688 14.32763672 C2.41443211 11.46163098 -0.00496341 9.33167886 -4 8 C-1.94766315 5.7522025 -0.99332739 4.9977758 2 4 C1.34 2.68 0.68 1.36 0 0 Z " fill="#EBD4A3" transform="translate(377,13)"/>
<path d="M0 0 C2.74801432 2.37328509 3.71082173 4.6481365 5 8 C5.66 8.66 6.32 9.32 7 10 C8.84548772 12.92202223 10.50101892 15.88673161 12 19 C10.741875 19.28875 9.48375 19.5775 8.1875 19.875 C5.1460601 20.57303539 3.69330122 21.20446585 1 23 C1.7425 23.12375 2.485 23.2475 3.25 23.375 C5.80141485 23.95486701 7.7267573 24.73708739 10 26 C9.34 26.66 8.68 27.32 8 28 C8 28.66 8 29.32 8 30 C8.556875 29.67 9.11375 29.34 9.6875 29 C12.30284522 27.8690399 14.1806646 27.84337026 17 28 C18.74472993 31.48945986 18.45335313 35.18476843 18 39 C16.91635322 42.14210245 15.5542657 45.06493576 14 48 C13.67 47.34 13.34 46.68 13 46 C13.76552678 44.10282495 14.53108565 42.20566283 15.296875 40.30859375 C16.44014413 36.5548601 16.24266521 32.88264343 16 29 C6.01463462 33.21537139 6.01463462 33.21537139 -1 41 C-2.42614915 45.58405085 -3.90257199 50.38092148 -2 55 C0.99615946 56.3045656 0.99615946 56.3045656 4 57 C2.68 58.32 1.36 59.64 0 61 C-0.66 60.67 -1.32 60.34 -2 60 C-2 59.34 -2 58.68 -2 58 C-2.66 58.66 -3.32 59.32 -4 60 C-2.0745356 62.2236068 -2.0745356 62.2236068 1 63 C1 63.99 1 64.98 1 66 C6.61 66 12.22 66 18 66 C18.495 64.515 18.495 64.515 19 63 C19.66 63 20.32 63 21 63 C21 63.66 21 64.32 21 65 C21.763125 64.649375 22.52625 64.29875 23.3125 63.9375 C26 63 26 63 29 64 C24.375 67 24.375 67 21 67 C21 67.66 21 68.32 21 69 C16.67285283 70.11749626 12.60316529 69.99914546 8.1875 69.6875 C7.47480957 69.63754883 6.76211914 69.58759766 6.02783203 69.53613281 C-2.22016293 68.89804119 -8.07380774 68.06401069 -14 62 C-16.85394822 57.35640253 -17.46609029 53.41152443 -17.375 48.0625 C-17.39240234 47.04639648 -17.39240234 47.04639648 -17.41015625 46.00976562 C-17.36688161 38.4871899 -14.81832067 33.24719043 -9.5625 28 C-4.28815761 22.90484501 1.51694596 19.36405897 8 16 C7.36771484 15.09507812 7.36771484 15.09507812 6.72265625 14.171875 C6.17480469 13.37265625 5.62695312 12.5734375 5.0625 11.75 C4.51722656 10.96109375 3.97195313 10.1721875 3.41015625 9.359375 C2.10377559 7.17363007 1.45019489 5.4846199 1 3 C-0.65 3.99 -2.3 4.98 -4 6 C-2.84826645 3.53199953 -1.95216435 1.95216435 0 0 Z " fill="#E3CD9B" transform="translate(286,125)"/>
<path d="M0 0 C0.33 0.66 0.66 1.32 1 2 C-0.00020365 4.28143129 -1.05791269 6.47127759 -2.1875 8.6875 C-8.52997585 21.68499779 -10.99722977 34.71859126 -11.1875 49.125 C-11.20071289 49.7945874 -11.21392578 50.4641748 -11.22753906 51.15405273 C-11.23447715 55.84015456 -10.44618031 59.59858167 -9 64 C-6.90504697 65.06043651 -6.90504697 65.06043651 -4 65 C2.20707529 61.89031673 5.73494518 57.44501105 8 51 C9.11143005 47.35778119 10.10211411 43.70037823 11 40 C11.66 40 12.32 40 13 40 C13 38.35 13 36.7 13 35 C14.887929 38.18588019 15.28372635 40.3168116 15 44 C13.9765625 47.0078125 13.9765625 47.0078125 12.625 50.125 C12.18414062 51.15882813 11.74328125 52.19265625 11.2890625 53.2578125 C10 56 10 56 8 59 C7.93453102 61.51047485 7.93453102 61.51047485 9 64 C11.63817362 66.49932238 13.54621974 67.84873991 17 69 C17.226875 68.360625 17.45375 67.72125 17.6875 67.0625 C19 65 19 65 21.625 64.25 C22.40875 64.1675 23.1925 64.085 24 64 C21.55240505 70.36374688 14.56253038 73.21873481 8.765625 76.1171875 C1.28653718 79.06945901 -8.08702864 79.67698773 -15.5 76.5 C-23.09951617 68.90048383 -26.21850747 62.18663821 -26.328125 51.32080078 C-26.32296875 50.38993652 -26.3178125 49.45907227 -26.3125 48.5 C-26.31121094 47.53690918 -26.30992187 46.57381836 -26.30859375 45.58154297 C-26.19998558 37.42642729 -25.06350415 29.88553373 -23 22 C-22.67 22 -22.34 22 -22 22 C-22.14383922 23.52102323 -22.29019014 25.04180897 -22.4375 26.5625 C-22.51871094 27.40941406 -22.59992188 28.25632812 -22.68359375 29.12890625 C-22.90583972 31.14558268 -23.19449135 33.15550746 -23.53125 35.15625 C-24.13447995 40.10273562 -24.10672456 44.96053599 -24.0625 49.9375 C-24.05798828 50.90751953 -24.05347656 51.87753906 -24.04882812 52.87695312 C-24.0371315 55.2513676 -24.02074086 57.62565021 -24 60 C-22.68 60 -21.36 60 -20 60 C-20 60.66 -20 61.32 -20 62 C-19.01 62.33 -18.02 62.66 -17 63 C-16.67 63.66 -16.34 64.32 -16 65 C-14.31135412 63.36290685 -14.31135412 63.36290685 -13 61 C-13.24544834 58.98732362 -13.60235737 56.98821313 -14 55 C-15.63571446 35.71945087 -9.74165943 16.40348152 0 0 Z " fill="#D3C095" transform="translate(159,247)"/>
<path d="M0 0 C0.33 0.66 0.66 1.32 1 2 C1.66 2.33 2.32 2.66 3 3 C1.68 4.32 0.36 5.64 -1 7 C-0.67 7.33 -0.34 7.66 0 8 C0.04080783 9.99958364 0.04254356 12.00045254 0 14 C1.98 13.67 3.96 13.34 6 13 C4.74240433 16.94664818 3.27772996 20.67040615 1.5625 24.4375 C-1.3927763 31.43775626 -2.77453402 38.52722843 -4 46 C-4.13277344 46.7734375 -4.26554688 47.546875 -4.40234375 48.34375 C-5.68088254 56.89069426 -5.11778618 65.47688039 -4 74 C-4.66 74 -5.32 74 -6 74 C-6.99 74.99 -6.99 74.99 -8 76 C-9.37562854 74.71034824 -10.70766393 73.37310707 -12 72 C-12 71.34 -12 70.68 -12 70 C-13.32 70 -14.64 70 -16 70 C-20.72077418 55.83767745 -16.19805983 35.4509647 -10.25 22.25 C-9.52264284 20.82157569 -8.78281532 19.39880114 -8 18 C-6.69951159 20.60097682 -6.43528578 23.13955062 -6 26 C-5.67 25.67 -5.34 25.34 -5 25 C-4.01 25 -3.02 25 -2 25 C-2.33 23.02 -2.66 21.04 -3 19 C-3.66 19 -4.32 19 -5 19 C-4.67 17.35 -4.34 15.7 -4 14 C-4.66 14 -5.32 14 -6 14 C-4.45941767 8.98491285 -2.97068161 4.3852919 0 0 Z M-2 13 C-2 13.66 -2 14.32 -2 15 C-1.34 14.67 -0.68 14.34 0 14 C-0.66 13.67 -1.32 13.34 -2 13 Z " fill="#EBD5A3" transform="translate(151,237)"/>
<path d="M0 0 C0.68551882 -0.00226556 1.37103764 -0.00453111 2.07732975 -0.00686532 C4.36172072 -0.0131675 6.64605178 -0.01237841 8.93045044 -0.0115509 C10.57350745 -0.01454474 12.21656375 -0.01794779 13.85961914 -0.02172852 C18.31420815 -0.03054942 22.76877794 -0.03290581 27.22337484 -0.0335443 C30.00848814 -0.03425583 32.79359657 -0.0363921 35.57870865 -0.03904152 C45.30077677 -0.04828828 55.02283119 -0.0523772 64.74490356 -0.05158997 C73.79827187 -0.0509892 82.85158058 -0.06154258 91.90493381 -0.07733363 C99.68600999 -0.09042052 107.46706671 -0.09577339 115.24815381 -0.09513456 C119.89179463 -0.09487993 124.53538247 -0.09771181 129.1790123 -0.10831261 C133.54731896 -0.11801303 137.91552218 -0.11805945 142.28383255 -0.11079597 C143.88336081 -0.10975258 145.48289559 -0.1120984 147.08241272 -0.11815643 C161.96840219 -0.17086667 161.96840219 -0.17086667 168.95437622 2.13371277 C168.95437622 2.46371277 168.95437622 2.79371277 168.95437622 3.13371277 C108.23437622 3.13371277 47.51437622 3.13371277 -15.04562378 3.13371277 C-11.15037403 -0.76153699 -5.2295973 0.00716616 0 0 Z " fill="#F5D8A3" transform="translate(191.04562377929688,11.866287231445313)"/>
<path d="M0 0 C1.5698991 0.00203117 3.13979835 0.00394258 4.70969772 0.00574493 C23.52116054 0.03328925 42.33241673 0.14037552 61.14356327 0.24685097 C66.26031675 0.27559667 71.37707643 0.3031955 76.49383545 0.33093262 C86.11870087 0.38327322 95.74356057 0.43659752 105.36841846 0.49030447 C116.35332059 0.55155041 127.33822889 0.61165521 138.32313776 0.6716795 C160.86028886 0.79485288 183.39743213 0.91940949 205.93457031 1.04492188 C205.60457031 1.70492188 205.27457031 2.36492187 204.93457031 3.04492188 C124.74457031 3.04492188 44.55457031 3.04492188 -38.06542969 3.04492188 C-38.06542969 2.38492187 -38.06542969 1.72492188 -38.06542969 1.04492188 C-25.37555553 0.26228646 -12.71224543 -0.03083932 0 0 Z " fill="#DEBFA0" transform="translate(155.0654296875,334.955078125)"/>
<path d="M0 0 C0.66 0.33 1.32 0.66 2 1 C0.68 2.32 -0.64 3.64 -2 5 C-0.35 4.34 1.3 3.68 3 3 C3 3.99 3 4.98 3 6 C4.9375006 8.18777466 4.9375006 8.18777466 7 10 C6.34 10 5.68 10 5 10 C5.99 11.485 5.99 11.485 7 13 C10.3 10.69 13.6 8.38 17 6 C17.66 6.33 18.32 6.66 19 7 C12.30717278 12.45484762 5.49759188 17.06474527 -2.125 21.125 C-2.87128662 21.52710693 -3.61757324 21.92921387 -4.38647461 22.34350586 C-6.22357794 23.29768325 -8.1088228 24.15806653 -10 25 C-10.66 24.67 -11.32 24.34 -12 24 C-11.67 23.34 -11.34 22.68 -11 22 C-11.99 21.67 -12.98 21.34 -14 21 C-12.68 20.67 -11.36 20.34 -10 20 C-10.99 19.34 -11.98 18.68 -13 18 C-13 17.01 -13 16.02 -13 15 C-13.99 15 -14.98 15 -16 15 C-15.34 13.68 -14.68 12.36 -14 11 C-17.3 12.32 -20.6 13.64 -24 15 C-24 14.34 -24 13.68 -24 13 C-23.37955811 12.67725098 -22.75911621 12.35450195 -22.11987305 12.02197266 C-19.30815859 10.55808088 -16.4978176 9.09157148 -13.6875 7.625 C-12.71103516 7.11710938 -11.73457031 6.60921875 -10.72851562 6.0859375 C-9.79072266 5.59609375 -8.85292969 5.10625 -7.88671875 4.6015625 C-7.02264404 4.15119629 -6.15856934 3.70083008 -5.26831055 3.23681641 C-2.83068677 1.95117842 -2.83068677 1.95117842 0 0 Z " fill="#DAC597" transform="translate(127,136)"/>
<path d="M0 0 C0.66 0.33 1.32 0.66 2 1 C1.34 1.99 0.68 2.98 0 4 C0 4.66 0 5.32 0 6 C1.65 5.67 3.3 5.34 5 5 C5 8.50935186 4.62457273 11.56484998 4 15 C4.33 15 4.66 15 5 15 C5 19.33174693 2.34177417 21.22353653 -0.5 24.1875 C-1.28697266 25.02571289 -1.28697266 25.02571289 -2.08984375 25.88085938 C-3.38661613 27.26015364 -4.69246259 28.63090644 -6 30 C-6.33 29.01 -6.66 28.02 -7 27 C-7.66 26.67 -8.32 26.34 -9 26 C-11.67927341 21.98108988 -11.15601248 19.75838077 -11 15 C-11.845625 15.80824219 -12.69125 16.61648437 -13.5625 17.44921875 C-19.39553474 22.96483868 -24.91547754 28.11045826 -32 32 C-30.5428587 28.44675705 -28.7428404 26.78025405 -25.6875 24.5 C-16.33708193 17.23648683 -7.45933786 9.22245408 0 0 Z " fill="#E2CE9C" transform="translate(162,104)"/>
<path d="M0 0 C1.06065514 5.22723224 1.17081519 10.27670278 1.20532227 15.58544922 C1.21522186 16.53242172 1.22512146 17.47939423 1.23532104 18.45506287 C1.26679878 21.57157936 1.29163903 24.68811107 1.31640625 27.8046875 C1.33698764 29.97087999 1.35798442 32.13706857 1.37937927 34.30325317 C1.43447758 39.99463732 1.48394071 45.68605697 1.53222656 51.37750244 C1.58253112 57.1892003 1.63817039 63.00084683 1.69335938 68.8125 C1.80079117 80.20828944 1.90226922 91.60412352 2 103 C5.3 103.33 8.6 103.66 12 104 C12 104.33 12 104.66 12 105 C7.38 105 2.76 105 -2 105 C-2.33 70.68 -2.66 36.36 -3 1 C-1 0 -1 0 0 0 Z " fill="#EDD8B0" transform="translate(71,42)"/>
<path d="M0 0 C-4.78610871 2.24654082 -8.72625725 3.26167602 -14 4 C-14.33 4.66 -14.66 5.32 -15 6 C-16.32 6 -17.64 6 -19 6 C-19 6.66 -19 7.32 -19 8 C-18.01 8.33 -17.02 8.66 -16 9 C-16.66 10.98 -17.32 12.96 -18 15 C-17.01 15 -16.02 15 -15 15 C-14.67 14.34 -14.34 13.68 -14 13 C-11.9375 12.375 -11.9375 12.375 -10 12 C-10 12.66 -10 13.32 -10 14 C-8.68 13.67 -7.36 13.34 -6 13 C-5.505 13.99 -5.505 13.99 -5 15 C-9.62 15.99 -14.24 16.98 -19 18 C-19 18.66 -19 19.32 -19 20 C-20.051875 20.268125 -21.10375 20.53625 -22.1875 20.8125 C-25.94418434 21.77846794 -25.94418434 21.77846794 -28.5625 23.75 C-31 25 -31 25 -34.3125 24.1875 C-35.199375 23.795625 -36.08625 23.40375 -37 23 C-37 22.34 -37 21.68 -37 21 C-35.35 20.67 -33.7 20.34 -32 20 C-32 19.34 -32 18.68 -32 18 C-32.5775 18.20625 -33.155 18.4125 -33.75 18.625 C-36.51967567 19.08661261 -37.64561267 18.42944945 -40 17 C-36.60823806 13.17339679 -32.79716889 10.93255426 -28.375 8.5 C-27.30693115 7.90735352 -27.30693115 7.90735352 -26.21728516 7.30273438 C-7.8711815 -2.72463975 -7.8711815 -2.72463975 0 0 Z " fill="#EAD6A3" transform="translate(414,85)"/>
<path d="M0 0 C2.74801432 2.37328509 3.71082173 4.6481365 5 8 C5.66 8.66 6.32 9.32 7 10 C8.84548772 12.92202223 10.50101892 15.88673161 12 19 C10.741875 19.28875 9.48375 19.5775 8.1875 19.875 C5.1460601 20.57303539 3.69330122 21.20446585 1 23 C1.7425 23.12375 2.485 23.2475 3.25 23.375 C5.80141485 23.95486701 7.7267573 24.73708739 10 26 C9.34 26.66 8.68 27.32 8 28 C8 28.66 8 29.32 8 30 C8.556875 29.67 9.11375 29.34 9.6875 29 C12.30284522 27.8690399 14.1806646 27.84337026 17 28 C18.74472993 31.48945986 18.45335313 35.18476843 18 39 C16.91635322 42.14210245 15.5542657 45.06493576 14 48 C13.67 47.34 13.34 46.68 13 46 C13.76552678 44.10282495 14.53108565 42.20566283 15.296875 40.30859375 C16.44014413 36.5548601 16.24266521 32.88264343 16 29 C6.03712254 33.23056127 6.03712254 33.23056127 -1 41 C-1.91318546 43.97395693 -2.54211336 46.92464197 -3 50 C-3.33 50 -3.66 50 -4 50 C-4.43177893 43.73920552 -3.92739438 40.90924297 0 36 C-0.99 36 -1.98 36 -3 36 C-3.33 36.99 -3.66 37.98 -4 39 C-6.475 35.535 -6.475 35.535 -9 32 C-8.67 31.34 -8.34 30.68 -8 30 C-9.98 32.31 -11.96 34.62 -14 37 C-14.495 35.515 -14.495 35.515 -15 34 C-7.97263414 26.35013125 -1.33201239 20.77186672 8 16 C7.36771484 15.09507812 7.36771484 15.09507812 6.72265625 14.171875 C6.17480469 13.37265625 5.62695312 12.5734375 5.0625 11.75 C4.51722656 10.96109375 3.97195313 10.1721875 3.41015625 9.359375 C2.10377559 7.17363007 1.45019489 5.4846199 1 3 C-1.475 4.485 -1.475 4.485 -4 6 C-2.84826645 3.53199953 -1.95216435 1.95216435 0 0 Z " fill="#D7C496" transform="translate(286,125)"/>
<path d="M0 0 C0.66 0.33 1.32 0.66 2 1 C2 1.99 2 2.98 2 4 C2.78375 4.28875 3.5675 4.5775 4.375 4.875 C7 6 7 6 9 8 C10.32 7.34 11.64 6.68 13 6 C13 9.538082 12.5898825 9.84199131 10.1875 12.25 C4.28440549 17.92419901 -4.33438055 24.84447935 -12.75 25.125 C-13.8225 25.08375 -14.895 25.0425 -16 25 C-13.08235 23.0549 -11.37462715 22.54723683 -8 22 C-8 21.34 -8 20.68 -8 20 C-8.66 20 -9.32 20 -10 20 C-9.67 19.01 -9.34 18.02 -9 17 C-8.34 17 -7.68 17 -7 17 C-7 15.68 -7 14.36 -7 13 C-7.66 12.67 -8.32 12.34 -9 12 C-8.01 12 -7.02 12 -6 12 C-6 12.66 -6 13.32 -6 14 C-5.34 14 -4.68 14 -4 14 C-4.33 13.34 -4.66 12.68 -5 12 C-7.52733235 11.34444881 -7.52733235 11.34444881 -10 11 C-9.67 10.34 -9.34 9.68 -9 9 C-6.03 9.495 -6.03 9.495 -3 10 C-3.33 8.68 -3.66 7.36 -4 6 C-4 6.66 -4 7.32 -4 8 C-5.65 8 -7.3 8 -9 8 C-6.37347975 4.40069448 -4.06036357 1.92333011 0 0 Z " fill="#EFD6A6" transform="translate(346,122)"/>
<path d="M0 0 C0.66 0.33 1.32 0.66 2 1 C1.01 1.99 0.02 2.98 -1 4 C-0.34 3.67 0.32 3.34 1 3 C1.99 3 2.98 3 4 3 C4.33 3.66 4.66 4.32 5 5 C4.67 5.66 4.34 6.32 4 7 C2.02 7 0.04 7 -2 7 C0.475 7.99 0.475 7.99 3 9 C3 9.66 3 10.32 3 11 C2.34 11 1.68 11 1 11 C0.67 10.67 0.34 10.34 0 10 C0 11.32 0 12.64 0 14 C-1.5 15.75 -1.5 15.75 -3 17 C-2.34 17 -1.68 17 -1 17 C-1 17.66 -1 18.32 -1 19 C-2.65 19.66 -4.3 20.32 -6 21 C3.76293626 20.48616125 11.22142896 13.22602576 17.87109375 6.7578125 C20 5 20 5 23 5 C14.41665525 14.34630873 3.94276221 23.03897542 -9 25 C-9.33 26.32 -9.66 27.64 -10 29 C-10.33 29 -10.66 29 -11 29 C-11 26.36 -11 23.72 -11 21 C-11.66 20.67 -12.32 20.34 -13 20 C-11.87548273 17.0280615 -10.77706209 14.66559313 -9 12 C-10.98 12.33 -12.96 12.66 -15 13 C-14.67 11.68 -14.34 10.36 -14 9 C-14 9.66 -14 10.32 -14 11 C-11.85349184 9.35504034 -9.70776711 7.70907674 -7.5625 6.0625 C-6.95083984 5.59392578 -6.33917969 5.12535156 -5.70898438 4.64257812 C-2.75031115 2.44328176 -2.75031115 2.44328176 0 0 Z " fill="#E6D19E" transform="translate(339,125)"/>
<path d="M0 0 C0.66 0 1.32 0 2 0 C2.23219725 12.34373194 2.409633 24.68694039 2.51812172 37.03241539 C2.5702051 42.76572444 2.64078954 48.49753425 2.75439453 54.22998047 C2.86344137 59.7673873 2.9229227 65.30335686 2.94877243 70.84175491 C2.96718112 72.94936365 3.00313178 75.05689791 3.05730057 77.16389084 C3.48671815 94.56672286 3.48671815 94.56672286 -0.29278564 99.58184814 C-2.73925197 102.04902758 -5.10128527 104.09520075 -8 106 C-8 103 -8 103 -6.50047302 101.48659992 C-5.53815514 100.68394089 -5.53815514 100.68394089 -4.55639648 99.86506653 C-1.0788994 96.51339633 -0.17898623 94.34142924 -0.05448914 89.56668091 C-0.06873428 88.77212494 -0.08297943 87.97756897 -0.09765625 87.15893555 C-0.0852742 86.30281174 -0.07289215 85.44668793 -0.06013489 84.56462097 C-0.02781056 81.7544671 -0.04461722 78.94696393 -0.0625 76.13671875 C-0.05056856 74.17851325 -0.03571391 72.22032358 -0.01806641 70.26216125 C0.01978027 65.1220068 0.01518503 59.98271151 0.00250244 54.84246826 C-0.00083421 50.63576532 0.02560837 46.42949702 0.05366516 42.22290325 C0.11104743 33.54679918 0.14956897 24.87038748 0.1328125 16.1940918 C0.1347612 15.38941467 0.1367099 14.58473755 0.13871765 13.75567627 C0.21190669 9.74764001 0.21190669 9.74764001 -1 6 C-1.99 6.495 -1.99 6.495 -3 7 C-1.125 2.25 -1.125 2.25 0 0 Z " fill="#B9A48D" transform="translate(171,112)"/>
<path d="M0 0 C0.66 0.33 1.32 0.66 2 1 C0.68 2.32 -0.64 3.64 -2 5 C-0.35 5 1.3 5 3 5 C2.34 6.32 1.68 7.64 1 9 C1.66 9 2.32 9 3 9 C3 9.66 3 10.32 3 11 C2.01 11.495 2.01 11.495 1 12 C1 13.32 1 14.64 1 16 C-2.45359492 17.57878625 -5.19290664 18.60112 -9 18 C-10.8125 16 -10.8125 16 -12 14 C-12 14.66 -12 15.32 -12 16 C-13.65 16.33 -15.3 16.66 -17 17 C-17.66 16.01 -18.32 15.02 -19 14 C-17.68 13.34 -16.36 12.68 -15 12 C-15.66 11.67 -16.32 11.34 -17 11 C-16.67 10.67 -16.34 10.34 -16 10 C-17.32 9.67 -18.64 9.34 -20 9 C-18.88625 8.54625 -17.7725 8.0925 -16.625 7.625 C-13.03800992 6.27534014 -13.03800992 6.27534014 -11 4 C-10.01 4 -9.02 4 -8 4 C-5.88399566 3.02370493 -3.87865306 1.90495337 -1.83984375 0.77734375 C-1.23269531 0.52082031 -0.62554687 0.26429688 0 0 Z " fill="#EBD7A3" transform="translate(114,145)"/>
<path d="M0 0 C8.74224545 5.11741197 15.61228527 13.43818185 19 23 C19.94226401 29.34219706 19.56947191 35.80111573 19.375 42.1875 C19.34484354 43.9198752 19.31747782 45.65230133 19.29296875 47.38476562 C19.22746479 51.59112181 19.12426728 55.79498644 19 60 C19.69867188 59.71125 20.39734375 59.4225 21.1171875 59.125 C22.02726562 58.75375 22.93734375 58.3825 23.875 58 C24.77992188 57.62875 25.68484375 57.2575 26.6171875 56.875 C29 56 29 56 31 56 C30.95549673 50.50423003 30.88530261 45.00957097 30.79248047 39.5144043 C30.76445746 37.64958596 30.7431512 35.78465296 30.72900391 33.91967773 C30.67973766 19.01826938 30.67973766 19.01826938 26 5 C25.62713867 4.24807373 25.25427734 3.49614746 24.87011719 2.72143555 C24.58297852 2.15336182 24.29583984 1.58528809 24 1 C27 2 27 2 29.0625 5.0625 C36.05274445 20.54858001 32.78628773 40.50349689 32 57 C28 59 24 61 20 63 C17.41727429 61.09102882 17.00521482 60.02752884 16.39526367 56.80761719 C16.01862721 53.17943793 15.97579695 49.7820458 16.11328125 46.140625 C16.1587207 44.21863281 16.1587207 44.21863281 16.20507812 42.2578125 C16.27034598 39.59904045 16.36711547 36.9469392 16.47851562 34.2890625 C16.70543596 22.04763062 12.69697603 14.49711603 4.61328125 5.55859375 C2.87889392 3.78985271 2.87889392 3.78985271 0 2 C0 1.34 0 0.68 0 0 Z " fill="#B5A57F" transform="translate(375,21)"/>
<path d="M0 0 C2.58995441 3.88493162 2.25225542 7.10567236 2.1953125 11.60546875 C2.1924826 12.44467361 2.18965271 13.28387848 2.18673706 14.14851379 C2.17554385 16.82832103 2.15044101 19.50779381 2.125 22.1875 C2.11496908 24.00455246 2.10584343 25.82161017 2.09765625 27.63867188 C2.07560734 32.09257675 2.04108351 36.54623167 2 41 C0.02 41.495 0.02 41.495 -2 42 C-2 42.99 -2 43.98 -2 45 C-1.34 45 -0.68 45 0 45 C0 46.65 0 48.3 0 50 C-0.99 50 -1.98 50 -3 50 C-3 50.66 -3 51.32 -3 52 C-4.485 52.495 -4.485 52.495 -6 53 C-4.02 53 -2.04 53 0 53 C0.1875 55.375 0.1875 55.375 0 58 C-0.99 58.66 -1.98 59.32 -3 60 C-2.67 58.35 -2.34 56.7 -2 55 C-2.928125 55.020625 -3.85625 55.04125 -4.8125 55.0625 C-8 55 -8 55 -11 54 C-11.495 54.495 -11.495 54.495 -12 55 C-12.66 55.66 -13.32 56.32 -14 57 C-14.99 56.67 -15.98 56.34 -17 56 C-16.25 51.25 -16.25 51.25 -14 49 C-14.66 48.67 -15.32 48.34 -16 48 C-14.86300618 47.21618682 -13.71464876 46.44886146 -12.5625 45.6875 C-11.92441406 45.25824219 -11.28632813 44.82898438 -10.62890625 44.38671875 C-6.96452588 42.45379894 -2.93032775 41.31010925 1 40 C0.67 26.8 0.34 13.6 0 0 Z " fill="#D1BE8F" transform="translate(224,105)"/>
<path d="M0 0 C0 0.99 0 1.98 0 3 C1.32 2.67 2.64 2.34 4 2 C3.42655063 4.86724686 3.1385485 5.8614515 1 8 C1.61875 7.690625 2.2375 7.38125 2.875 7.0625 C6.57009326 5.21495337 8.81451514 4.9090112 13 5 C13 5.99 13 6.98 13 8 C12.484375 7.7525 11.96875 7.505 11.4375 7.25 C7.44339112 6.84034781 4.98127675 8.58570761 2 11 C-3.04268565 15.5950857 -6.03725592 20.03904046 -6.64550781 26.83447266 C-6.88431365 32.45865298 -6.69978003 38.06491733 -6.5 43.6875 C-6.45980598 45.66073473 -6.42331569 47.63404857 -6.390625 49.60742188 C-6.30313157 54.40692557 -6.16546129 59.20257728 -6 64 C-4.35 62.68 -2.7 61.36 -1 60 C-2.30574169 62.91280837 -3.7074208 64.80294493 -6 67 C-6.66 67.99 -7.32 68.98 -8 70 C-8.17851343 63.20515539 -8.30049942 56.41092225 -8.38452148 49.61425781 C-8.41957215 47.30575972 -8.46722811 44.99741532 -8.52807617 42.68945312 C-8.61367209 39.35768598 -8.65284366 36.0279843 -8.68359375 32.6953125 C-8.71972275 31.67511017 -8.75585175 30.65490784 -8.79307556 29.60379028 C-8.79738616 21.61177744 -6.11992222 17.03410334 -1 11 C-2.98 11.99 -2.98 11.99 -5 13 C-8.81538462 10.53846154 -8.81538462 10.53846154 -9.75 7.8125 C-9.8325 7.214375 -9.915 6.61625 -10 6 C-2.92307692 0 -2.92307692 0 0 0 Z " fill="#CCB990" transform="translate(208,94)"/>
<path d="M0 0 C15.73900593 -0.92220738 15.73900593 -0.92220738 21.484375 3.51171875 C24.77206406 6.74009384 26.60117932 9.75368539 28 14.125 C28 17 28 17 26.3125 19.3125 C22.74355972 21.91686183 22.74355972 21.91686183 20 22 C16.10597338 20.23841653 14.85122089 18.70244178 13 15 C10.97692095 14.35739489 10.97692095 14.35739489 9 14 C9.06018017 16.25073828 9.14901206 18.50072325 9.25 20.75 C9.29640625 22.00296875 9.3428125 23.2559375 9.390625 24.546875 C10.07150347 28.40518636 10.98126522 29.60916205 14 32 C13.67 32.66 13.34 33.32 13 34 C9.38066902 31.09996824 8.09656408 29.72927503 7.4765625 25.046875 C7.50026939 23.61392504 7.55035105 22.18120059 7.625 20.75 C7.64626953 19.65171875 7.64626953 19.65171875 7.66796875 18.53125 C7.81651786 13.18348214 7.81651786 13.18348214 9 12 C11.375 11.625 11.375 11.625 14 12 C15.81883009 14.3832946 17 15.95818337 17 19 C21.12973628 18.43260132 21.12973628 18.43260132 25 17 C24.52290176 11.99046845 23.25832465 8.85854235 20 5 C13.75215357 1.01201291 7.21461306 1.70707586 0 2 C0 1.34 0 0.68 0 0 Z " fill="#A39275" transform="translate(293,79)"/>
<path d="M0 0 C0.99 0.33 1.98 0.66 3 1 C3 2.65 3 4.3 3 6 C2.34 6 1.68 6 1 6 C1.33 38.34 1.66 70.68 2 104 C1.34 104 0.68 104 0 104 C0 69.68 0 35.36 0 0 Z " fill="#F5E0B5" transform="translate(69,185)"/>
<path d="M0 0 C0.66 0 1.32 0 2 0 C2.57256004 3.92612596 2.74950876 5.91988086 0.44140625 9.24609375 C-1.31655476 11.23043203 -3.10884918 13.14261973 -5 15 C-5.99 14.67 -6.98 14.34 -8 14 C-8 12.68 -8 11.36 -8 10 C-8.66 9.67 -9.32 9.34 -10 9 C-10 8.34 -10 7.68 -10 7 C-10.66 7 -11.32 7 -12 7 C-12.33 6.01 -12.66 5.02 -13 4 C-11.68 3.01 -10.36 2.02 -9 1 C-8.71125 1.639375 -8.4225 2.27875 -8.125 2.9375 C-7.17176549 5.15206079 -7.17176549 5.15206079 -5 6 C-5 5.34 -5 4.68 -5 4 C-4.34 4 -3.68 4 -3 4 C-2.67 3.34 -2.34 2.68 -2 2 C-1.34 1.34 -0.68 0.68 0 0 Z " fill="#E9D4A2" transform="translate(280,125)"/>
<path d="M0 0 C0.33 0.66 0.66 1.32 1 2 C-0.07518118 4.44332726 -1.19808566 6.76754523 -2.4375 9.125 C-2.77587891 9.78371094 -3.11425781 10.44242188 -3.46289062 11.12109375 C-4.30149926 12.75106547 -5.14984811 14.37601909 -6 16 C-5.34 16 -4.68 16 -4 16 C-4.33 17.65 -4.66 19.3 -5 21 C-4.01 20.67 -3.02 20.34 -2 20 C-1.375 23.375 -1.375 23.375 -1 27 C-1.66 27.66 -2.32 28.32 -3 29 C-3.33 28.34 -3.66 27.68 -4 27 C-4.33 27.66 -4.66 28.32 -5 29 C-7 28 -7 28 -8 27 C-8 25.02 -8 23.04 -8 21 C-9.65 25.29 -11.3 29.58 -13 34 C-14.11712767 29.53148932 -13.77073571 28.65246751 -12.05078125 24.5703125 C-11.61443359 23.52746094 -11.17808594 22.48460937 -10.72851562 21.41015625 C-10.02758789 19.78400391 -10.02758789 19.78400391 -9.3125 18.125 C-8.86455078 17.04863281 -8.41660156 15.97226563 -7.95507812 14.86328125 C-5.70278988 9.54565166 -3.45210488 4.64053443 0 0 Z " fill="#D0BD8E" transform="translate(151,235)"/>
<path d="M0 0 C0.66 0.66 1.32 1.32 2 2 C1.67 2.99 1.34 3.98 1 5 C1.185625 5.5775 1.37125 6.155 1.5625 6.75 C2.21960539 10.12939916 1.05131535 12.78421187 0 16 C-0.99 16 -1.98 16 -3 16 C-4.03013277 17.64821244 -5.03114628 19.31503702 -6 21 C-6.66 21 -7.32 21 -8 21 C-8.28875 21.886875 -8.5775 22.77375 -8.875 23.6875 C-9.83148748 26.50382424 -10.86798946 29.25083156 -12 32 C-12.66 32 -13.32 32 -14 32 C-12.26171548 26.43748953 -9.94972686 21.22700707 -7.56640625 15.921875 C-6.18461619 12.81432996 -4.93974081 9.81061398 -3.90625 6.5625 C-3 4 -3 4 -1 3 C-0.67 2.01 -0.34 1.02 0 0 Z " fill="#D8C6A4" transform="translate(389,236)"/>
<path d="M0 0 C2.74801432 2.37328509 3.71082173 4.6481365 5 8 C5.66 8.66 6.32 9.32 7 10 C8.84548772 12.92202223 10.50101892 15.88673161 12 19 C10.865625 19.20625 9.73125 19.4125 8.5625 19.625 C-0.45983403 21.91638642 -6.8025282 28.40125305 -13 35 C-13.66 35.66 -14.32 36.32 -15 37 C-14.1616315 30.81880854 -8.48609057 26.82930345 -4 23 C-0.11529907 20.42689798 3.86536013 18.14546605 8 16 C7.36771484 15.09507812 7.36771484 15.09507812 6.72265625 14.171875 C6.17480469 13.37265625 5.62695312 12.5734375 5.0625 11.75 C4.51722656 10.96109375 3.97195313 10.1721875 3.41015625 9.359375 C2.10377559 7.17363007 1.45019489 5.4846199 1 3 C-1.475 4.485 -1.475 4.485 -4 6 C-2.84826645 3.53199953 -1.95216435 1.95216435 0 0 Z " fill="#B5A58E" transform="translate(286,125)"/>
<path d="M0 0 C2.97 0.495 2.97 0.495 6 1 C6 2.65 6 4.3 6 6 C5.01 6.495 5.01 6.495 4 7 C4.66 7.66 5.32 8.32 6 9 C5.01 9.495 5.01 9.495 4 10 C5.81222534 12.0624994 5.81222534 12.0624994 8 14 C8.99 14 9.98 14 11 14 C11.66 14.66 12.32 15.32 13 16 C12.625 19.125 12.625 19.125 12 22 C11.525625 21.34 11.05125 20.68 10.5625 20 C6.56813539 15.3236707 1.92986618 9.97662206 -4 8 C-1.94766315 5.7522025 -0.99332739 4.9977758 2 4 C1.34 2.68 0.68 1.36 0 0 Z " fill="#EDD4A8" transform="translate(377,13)"/>
<path d="M0 0 C-0.33 0.66 -0.66 1.32 -1 2 C-2.67633863 2.30010402 -4.36858242 2.51195269 -6.0625 2.6875 C-21.76013252 5.12109747 -36.6180372 14.36958449 -49 24 C-49.66 23.67 -50.32 23.34 -51 23 C-44.83836131 18.20906483 -38.54710223 14.00651492 -31.75 10.1875 C-31.08935547 9.8150415 -30.42871094 9.44258301 -29.74804688 9.05883789 C-23.68758366 5.70935516 -17.62342453 2.97758125 -10.875 1.3125 C-9.88242187 1.06113281 -8.88984375 0.80976562 -7.8671875 0.55078125 C-5.15953843 0.03064703 -2.74768371 -0.10568014 0 0 Z " fill="#B09F86" transform="translate(417,82)"/>
<path d="M0 0 C0.53367188 0.40992188 1.06734375 0.81984375 1.6171875 1.2421875 C7.27230775 5.33187654 12.08399349 7.16257124 19 8 C17.02 8.99 17.02 8.99 15 10 C20.445 10.495 20.445 10.495 26 11 C26 11.33 26 11.66 26 12 C18.74 12 11.48 12 4 12 C3.34 9.36 2.68 6.72 2 4 C0.98645388 1.63073608 0.98645388 1.63073608 0 0 Z " fill="#DFCAA2" transform="translate(136,324)"/>
<path d="M0 0 C0.97591583 3.38317487 0.85856655 5.5657338 0 9 C-2.97 8.505 -2.97 8.505 -6 8 C-6.66 10.31 -7.32 12.62 -8 15 C-11.07617188 15.29296875 -11.07617188 15.29296875 -14.15234375 15.5859375 C-14.76207031 15.72257813 -15.37179688 15.85921875 -16 16 C-16.33 16.66 -16.66 17.32 -17 18 C-17.99 17.67 -18.98 17.34 -20 17 C-19.39414063 16.52691406 -18.78828125 16.05382812 -18.1640625 15.56640625 C-11.88417129 10.61012288 -5.88936675 5.41320519 0 0 Z " fill="#EBD8AA" transform="translate(151,118)"/>
<path d="M0 0 C0.33 0 0.66 0 1 0 C1.02543379 7.40152245 1.04290207 14.80303356 1.05493164 22.20458984 C1.05994866 24.72054465 1.06676378 27.23649656 1.07543945 29.75244141 C1.08762041 33.3766349 1.09325474 37.00078971 1.09765625 40.625 C1.10281754 41.74302002 1.10797882 42.86104004 1.11329651 44.01293945 C1.11370689 49.7749239 0.87215283 55.30233722 0 61 C-1.32 60.67 -2.64 60.34 -4 60 C-3.34 57.36 -2.68 54.72 -2 52 C-1.34 52 -0.68 52 0 52 C-0.11589478 51.06172363 -0.11589478 51.06172363 -0.23413086 50.10449219 C-1.3097729 39.80483897 -0.88376313 29.57801474 -0.5625 19.25 C-0.50915634 17.37762143 -0.45641727 15.50522552 -0.40429688 13.6328125 C-0.27649724 9.08831198 -0.14053006 4.54412394 0 0 Z " fill="#F3E2B5" transform="translate(405,239)"/>
<path d="M0 0 C1.32 0.33 2.64 0.66 4 1 C3.67 2.98 3.34 4.96 3 7 C2.01 7.33 1.02 7.66 0 8 C-2.91320433 11.77002913 -5 15.12399138 -5 20 C-5 20.66 -5 21.32 -5 22 C-6.98 22.33 -8.96 22.66 -11 23 C-9.21585549 16.39866531 -5.87983506 8.87983506 -1 4 C-0.3574765 1.93125966 -0.3574765 1.93125966 0 0 Z " fill="#EDD6AF" transform="translate(83,15)"/>
<path d="M0 0 C5.94 0 11.88 0 18 0 C18 0.66 18 1.32 18 2 C18.56847656 2.10957031 19.13695312 2.21914062 19.72265625 2.33203125 C31.81512605 4.81512605 31.81512605 4.81512605 36 9 C35.01 9.33 34.02 9.66 33 10 C32.40832031 9.30777344 32.40832031 9.30777344 31.8046875 8.6015625 C25.59084606 3.08711447 13.88692538 3.04327531 6 3 C4.66438406 3.32406626 3.33030412 3.65477567 2 4 C1.34 3.67 0.68 3.34 0 3 C0 2.01 0 1.02 0 0 Z " fill="#ECD8B8" transform="translate(417,82)"/>
<path d="M0 0 C2.64 0.33 5.28 0.66 8 1 C8 1.66 8 2.32 8 3 C6.35 3.33 4.7 3.66 3 4 C4.32 4.66 5.64 5.32 7 6 C7 6.66 7 7.32 7 8 C7.61488281 7.62746094 8.22976563 7.25492187 8.86328125 6.87109375 C9.67152344 6.39800781 10.47976563 5.92492187 11.3125 5.4375 C12.11300781 4.96183594 12.91351563 4.48617187 13.73828125 3.99609375 C16 3 16 3 19 4 C9.6585581 10.60409314 9.6585581 10.60409314 4.375 9.875 C3.26125 9.58625 2.1475 9.2975 1 9 C1 8.34 1 7.68 1 7 C-0.32 7.33 -1.64 7.66 -3 8 C-2.34 7.01 -1.68 6.02 -1 5 C-0.61500109 3.34450469 -0.27206865 1.6777567 0 0 Z " fill="#DAC596" transform="translate(374,102)"/>
<path d="M0 0 C8.75740747 1.62105202 13.83055518 5.73866983 20 12 C19.67 12.99 19.34 13.98 19 15 C16.525 14.505 16.525 14.505 14 14 C13.7525 13.030625 13.505 12.06125 13.25 11.0625 C12.63125 9.5465625 12.63125 9.5465625 12 8 C9.96756452 7.03122943 9.96756452 7.03122943 8 7 C8 6.34 8 5.68 8 5 C6.8553125 4.5978125 6.8553125 4.5978125 5.6875 4.1875 C3.08770098 3.0387516 1.89784008 2.0314124 0 0 Z " fill="#DCCAA4" transform="translate(380,8)"/>
<path d="M0 0 C0.66 0.33 1.32 0.66 2 1 C-6.58334475 10.34630873 -17.05723779 19.03897542 -30 21 C-30.33 22.32 -30.66 23.64 -31 25 C-31.33 25 -31.66 25 -32 25 C-32 22.69 -32 20.38 -32 18 C-30.741875 17.95875 -29.48375 17.9175 -28.1875 17.875 C-16.37959798 16.47281164 -8.09771106 7.94225762 0 0 Z " fill="#B09980" transform="translate(360,129)"/>
<path d="M0 0 C1.88863352 3.18706907 2.27814623 5.31587452 2 9 C1.01171875 12.04296875 1.01171875 12.04296875 -0.3125 15.1875 C-0.95638672 16.75564453 -0.95638672 16.75564453 -1.61328125 18.35546875 C-3 21 -3 21 -6 23 C-7.20510937 19.38467189 -6.38327313 18.3061781 -4.8359375 14.984375 C-3.47322211 11.7495179 -2.77939135 8.41733129 -2 5 C-1.34 5 -0.68 5 0 5 C0 3.35 0 1.7 0 0 Z " fill="#DECCA6" transform="translate(172,282)"/>
<path d="M0 0 C0.66 0 1.32 0 2 0 C2 0.99 2 1.98 2 3 C7.61 3 13.22 3 19 3 C19.33 2.01 19.66 1.02 20 0 C20.66 0 21.32 0 22 0 C22 0.66 22 1.32 22 2 C22.763125 1.649375 23.52625 1.29875 24.3125 0.9375 C27 0 27 0 30 1 C25.375 4 25.375 4 22 4 C21.67 4.66 21.34 5.32 21 6 C17.97846145 5.88529624 14.95821599 5.7585615 11.9375 5.625 C11.08994141 5.5940625 10.24238281 5.563125 9.36914062 5.53125 C4.26321829 5.29468217 -0.14791873 4.61955494 -5 3 C-4.01 2.67 -3.02 2.34 -2 2 C-1.34 2.33 -0.68 2.66 0 3 C0 2.01 0 1.02 0 0 Z " fill="#F2D7AD" transform="translate(285,188)"/>
<path d="M0 0 C4.29633946 1.89038936 5.92891256 4.55239056 8.4375 8.375 C9.34005885 11.00062573 8.8569024 12.74015136 8.125 15.375 C6.805 15.705 5.485 16.035 4.125 16.375 C4.785 14.395 5.445 12.415 6.125 10.375 C5.465 10.375 4.805 10.375 4.125 10.375 C3.795 11.695 3.465 13.015 3.125 14.375 C2.795 12.725 2.465 11.075 2.125 9.375 C3.115 9.375 4.105 9.375 5.125 9.375 C5.125 8.715 5.125 8.055 5.125 7.375 C4.465 7.045 3.805 6.715 3.125 6.375 C3.455 5.715 3.785 5.055 4.125 4.375 C3.465 4.375 2.805 4.375 2.125 4.375 C2.125 3.715 2.125 3.055 2.125 2.375 C0.475 2.705 -1.175 3.035 -2.875 3.375 C-2.875 2.715 -2.875 2.055 -2.875 1.375 C-3.535 1.045 -4.195 0.715 -4.875 0.375 C-2.875 -0.625 -2.875 -0.625 0 0 Z " fill="#EFD9AF" transform="translate(309.875,81.625)"/>
<path d="M0 0 C0.66 0.33 1.32 0.66 2 1 C1.75 3.375 1.75 3.375 1 6 C-1 7.125 -1 7.125 -3 8 C-3.33 8.99 -3.66 9.98 -4 11 C-4 10.01 -4 9.02 -4 8 C-5.65 8.33 -7.3 8.66 -9 9 C-9.33 8.01 -9.66 7.02 -10 6 C-7.35603236 3.35603236 -4.42496181 2.43225676 -1 1 C-0.67 0.67 -0.34 0.34 0 0 Z " fill="#E3D0A5" transform="translate(372,102)"/>
<path d="M0 0 C0.33 0.99 0.66 1.98 1 3 C-7.19476087 11.36548505 -15.68526372 18.90613834 -25 26 C-25 25.01 -25 24.02 -25 23 C-23.05078125 21.16015625 -23.05078125 21.16015625 -20.3125 19.0625 C-15.66648016 15.38918392 -11.22603781 11.58103624 -6.875 7.5625 C-6.30692627 7.04244385 -5.73885254 6.5223877 -5.15356445 5.98657227 C-2.18404016 3.30460821 -2.18404016 3.30460821 0 0 Z " fill="#B4A785" transform="translate(156,110)"/>
<path d="M0 0 C0.33 0 0.66 0 1 0 C1.33 10.23 1.66 20.46 2 31 C3.65 30.67 5.3 30.34 7 30 C7 30.66 7 31.32 7 32 C5.68 32.66 4.36 33.32 3 34 C0.5942805 32.2218595 0.02427961 31.11047221 -0.625 28.15625 C-1.31010205 22.64042841 -0.84814531 17.09482591 -0.5625 11.5625 C-0.51029297 10.44939453 -0.45808594 9.33628906 -0.40429688 8.18945312 C-0.27540537 5.45929677 -0.14047673 2.72958065 0 0 Z " fill="#AA766B" transform="translate(392,50)"/>
<path d="M0 0 C0.99 0.66 1.98 1.32 3 2 C2.01 2.495 2.01 2.495 1 3 C1.33 4.65 1.66 6.3 2 8 C1.01 8.33 0.02 8.66 -1 9 C-1.96070434 11.88211302 -2.10581883 13.69850044 -2.0625 16.6875 C-2.05347656 17.49574219 -2.04445313 18.30398437 -2.03515625 19.13671875 C-2.02355469 19.75160156 -2.01195312 20.36648437 -2 21 C-2.66 21 -3.32 21 -4 21 C-4 18.36 -4 15.72 -4 13 C-4.66 12.67 -5.32 12.34 -6 12 C-5.34 12 -4.68 12 -4 12 C-3.896875 10.7625 -3.79375 9.525 -3.6875 8.25 C-3.26198318 4.7207134 -2.51887408 2.62839034 0 0 Z " fill="#EDD7AF" transform="translate(285,86)"/>
<path d="M0 0 C0.99 0.99 1.98 1.98 3 3 C3.66 2.67 4.32 2.34 5 2 C4.88490339 3.41750563 4.75746342 4.83401169 4.625 6.25 C4.55539063 7.03890625 4.48578125 7.8278125 4.4140625 8.640625 C3.98492887 11.085877 3.21399362 12.84836903 2 15 C-0.51721584 10.46901149 -1.28700661 6.16611896 -1 1 C-0.67 0.67 -0.34 0.34 0 0 Z " fill="#EED5A6" transform="translate(193,272)"/>
<path d="M0 0 C2.475 0.99 2.475 0.99 5 2 C2 4 2 4 0 4 C-0.0825 4.598125 -0.165 5.19625 -0.25 5.8125 C-1.22061134 8.64344975 -2.52046488 9.39559492 -5 11 C-5.99 11.66 -6.98 12.32 -8 13 C-8 9.4384838 -7.26790571 8.68021425 -5.125 5.9375 C-4.59132812 5.24527344 -4.05765625 4.55304688 -3.5078125 3.83984375 C-2 2 -2 2 0 0 Z " fill="#F0D7AC" transform="translate(167,213)"/>
<path d="M0 0 C3.10009769 1.38238352 5.28263873 2.98578859 7.6875 5.375 C8.28949219 5.96023437 8.89148438 6.54546875 9.51171875 7.1484375 C11.10135013 9.12608914 11.5905426 10.5214179 12 13 C11.01 12.34 10.02 11.68 9 11 C8.34 11.66 7.68 12.32 7 13 C4 11 4 11 3.33984375 9.16015625 C3.20707031 8.46792969 3.07429688 7.77570313 2.9375 7.0625 C2.33211066 3.97789718 1.8291905 2.74378574 0 0 Z " fill="#D8C8A1" transform="translate(455,91)"/>
<path d="M0 0 C0.33 0 0.66 0 1 0 C1.46811958 8.90727533 1.42178891 17.0141605 -3 25 C-3.99 25.66 -4.98 26.32 -6 27 C-6.625 24.1875 -6.625 24.1875 -7 21 C-6.01 19.515 -6.01 19.515 -5 18 C-5 18.66 -5 19.32 -5 20 C-4.01 20 -3.02 20 -2 20 C-1.34 13.4 -0.68 6.8 0 0 Z " fill="#CBB897" transform="translate(328,156)"/>
<path d="M0 0 C2 1 2 1 3 2 C3 2.99 3 3.98 3 5 C2.07767578 5.15082031 2.07767578 5.15082031 1.13671875 5.3046875 C-1.55982247 5.93259024 -3.62278116 6.56270988 -6 8 C-7.68035037 11.22067154 -8.41709044 14.42884145 -9 18 C-9.33 18 -9.66 18 -10 18 C-9.73118823 11.95173516 -9.08176177 7.7620554 -5 3 C-2.375 1.0625 -2.375 1.0625 0 0 Z " fill="#C5B589" transform="translate(290,80)"/>
<path d="M0 0 C0.66 0.33 1.32 0.66 2 1 C1.44010697 4.99012371 0.24330232 7.5255052 -2.0625 10.8125 C-2.88427734 11.99779297 -2.88427734 11.99779297 -3.72265625 13.20703125 C-4.14417969 13.79871094 -4.56570313 14.39039063 -5 15 C-6.47299173 12.05401654 -5.74415364 10.16265296 -5 7 C-3.5625 4.125 -3.5625 4.125 -2 2 C-1.34 2 -0.68 2 0 2 C0 1.34 0 0.68 0 0 Z " fill="#EED7AE" transform="translate(398,304)"/>
<path d="M0 0 C0.66 1.65 1.32 3.3 2 5 C0.35 5.66 -1.3 6.32 -3 7 C-3 7.66 -3 8.32 -3 9 C-4.32 8.34 -5.64 7.68 -7 7 C-6.75 4.625 -6.75 4.625 -6 2 C-3.84898936 0.54286376 -2.59713506 0 0 0 Z " fill="#EAD5A3" transform="translate(278,122)"/>
<path d="M0 0 C-3.56629291 3.56629291 -7.18344118 3.16241376 -12 3.1875 C-13.2375 3.20167969 -14.475 3.21585937 -15.75 3.23046875 C-19 3 -19 3 -22 1 C-14.63512596 0.00137301 -7.42686315 -0.10331031 0 0 Z " fill="#EEDDB5" transform="translate(170,332)"/>
<path d="M0 0 C0.66 0.33 1.32 0.66 2 1 C-5.54203809 8.13102784 -13.21452802 12.61956423 -23 16 C-22.7734375 14.078125 -22.7734375 14.078125 -22 12 C-20.1015625 11.234375 -20.1015625 11.234375 -17.625 10.75 C-10.85971545 9.01230787 -4.93630015 4.93630015 0 0 Z " fill="#B3A375" transform="translate(270,141)"/>
<path d="M0 0 C1.98 0 3.96 0 6 0 C6.625 2.375 6.625 2.375 7 5 C6.34 5.66 5.68 6.32 5 7 C4.34 6.67 3.68 6.34 3 6 C4.65 7.98 6.3 9.96 8 12 C7.67 12.66 7.34 13.32 7 14 C0.13785558 7.10284464 0.13785558 7.10284464 -0.4375 2.5 C-0.293125 1.675 -0.14875 0.85 0 0 Z " fill="#D2C190" transform="translate(441,98)"/>
<path d="M0 0 C2.73332093 0.48235075 5.24862665 1.08647883 7.875 2 C11.24412288 3.07811932 14.50069447 3.52893964 18 4 C18.66 4.33 19.32 4.66 20 5 C19.34 6.32 18.68 7.64 18 9 C9.09 5.04 9.09 5.04 0 1 C0 0.67 0 0.34 0 0 Z " fill="#D3BE9B" transform="translate(93,328)"/>
<path d="M0 0 C2.0625 0.4375 2.0625 0.4375 4 1 C4 1.99 4 2.98 4 4 C4.79664062 3.65775391 4.79664062 3.65775391 5.609375 3.30859375 C6.31578125 3.02113281 7.0221875 2.73367187 7.75 2.4375 C8.44609375 2.14746094 9.1421875 1.85742188 9.859375 1.55859375 C12.32267287 0.91579887 13.59358157 1.3102482 16 2 C13.25435036 3.03411477 10.5045139 4.05251157 7.75 5.0625 C6.97269531 5.35705078 6.19539063 5.65160156 5.39453125 5.95507812 C4.26337891 6.3659668 4.26337891 6.3659668 3.109375 6.78515625 C2.41811523 7.04176025 1.72685547 7.29836426 1.01464844 7.56274414 C-1.32031471 8.06952056 -2.75375603 7.74214139 -5 7 C-3.35 6.67 -1.7 6.34 0 6 C-0.2784375 4.7934375 -0.2784375 4.7934375 -0.5625 3.5625 C-0.706875 2.716875 -0.85125 1.87125 -1 1 C-0.67 0.67 -0.34 0.34 0 0 Z " fill="#CBB585" transform="translate(81,168)"/>
<path d="M0 0 C0.99 0.33 1.98 0.66 3 1 C2.20335937 1.67095703 2.20335937 1.67095703 1.390625 2.35546875 C-2.50473511 5.68927148 -5.81898796 8.96256164 -9 13 C-9.66 13 -10.32 13 -11 13 C-11 9.37 -11 5.74 -11 2 C-10.34 1.67 -9.68 1.34 -9 1 C-9 3.31 -9 5.62 -9 8 C-7.68712379 6.85459775 -6.37470979 5.70866567 -5.0625 4.5625 C-4.33160156 3.92441406 -3.60070312 3.28632812 -2.84765625 2.62890625 C-1.87860647 1.77458541 -0.91348825 0.91348825 0 0 Z " fill="#B39780" transform="translate(207,87)"/>
<path d="M0 0 C0.66 0.33 1.32 0.66 2 1 C2 1.99 2 2.98 2 4 C1.01 4.33 0.02 4.66 -1 5 C-1.99 6.485 -1.99 6.485 -3 8 C-5.1640625 8.29296875 -5.1640625 8.29296875 -7.625 8.1875 C-8.44226563 8.16042969 -9.25953125 8.13335937 -10.1015625 8.10546875 C-10.72804687 8.07066406 -11.35453125 8.03585938 -12 8 C-8.71268307 4.16479692 -4.74852829 1.67534656 0 0 Z " fill="#D4C0A0" transform="translate(220,146)"/>
<path d="M0 0 C0.66 0 1.32 0 2 0 C2.57256004 3.92612596 2.74950876 5.91988086 0.44140625 9.24609375 C-1.31655476 11.23043203 -3.10884918 13.14261973 -5 15 C-5.66 14.67 -6.32 14.34 -7 14 C-6.525625 13.608125 -6.05125 13.21625 -5.5625 12.8125 C-3.64820367 10.59191626 -3.38733012 8.86624291 -3 6 C-3.66 6 -4.32 6 -5 6 C-5 5.34 -5 4.68 -5 4 C-4.34 4 -3.68 4 -3 4 C-2.67 3.34 -2.34 2.68 -2 2 C-1.34 1.34 -0.68 0.68 0 0 Z " fill="#DFCB9A" transform="translate(280,125)"/>
<path d="M0 0 C0.99 0.33 1.98 0.66 3 1 C3.125 7.75 3.125 7.75 2 10 C0.68 9.67 -0.64 9.34 -2 9 C-2 8.34 -2 7.68 -2 7 C-2.31478446 5.66216607 -2.64587656 4.32796291 -3 3 C-2.34 3 -1.68 3 -1 3 C-0.67 2.01 -0.34 1.02 0 0 Z M3 3 C3.66 3 4.32 3 5 3 C5 3.66 5 4.32 5 5 C4.34 5 3.68 5 3 5 C3 4.34 3 3.68 3 3 Z " fill="#ECD39E" transform="translate(161,111)"/>
<path d="M0 0 C-1.66666667 1.66666667 -3.33333333 3.33333333 -5 5 C-5.556875 5.598125 -6.11375 6.19625 -6.6875 6.8125 C-8 8 -8 8 -10 8 C-9.88637738 6.5199159 -9.75877092 5.04089926 -9.625 3.5625 C-9.55539062 2.73878906 -9.48578125 1.91507812 -9.4140625 1.06640625 C-9.27742188 0.38449219 -9.14078125 -0.29742187 -9 -1 C-5.79937313 -2.60031344 -3.27728194 -1.03173691 0 0 Z " fill="#EED6AB" transform="translate(380,111)"/>
<path d="M0 0 C-4.78610871 2.24654082 -8.72625725 3.26167602 -14 4 C-14.33 4.66 -14.66 5.32 -15 6 C-18.0625 6.625 -18.0625 6.625 -21 7 C-21.33 6.34 -21.66 5.68 -22 5 C-20.12855305 4.17934931 -18.25265664 3.3688416 -16.375 2.5625 C-15.33085937 2.11003906 -14.28671875 1.65757813 -13.2109375 1.19140625 C-8.67335485 -0.49224668 -4.67886554 -1.6196073 0 0 Z " fill="#F0D9B1" transform="translate(414,85)"/>
<path d="M0 0 C0.66 0.33 1.32 0.66 2 1 C1.525625 1.598125 1.05125 2.19625 0.5625 2.8125 C-1.16465744 5.00382924 -1.16465744 5.00382924 -2 8 C-4.06640625 8.73046875 -4.06640625 8.73046875 -6.5625 9.1875 C-7.38878906 9.34605469 -8.21507812 9.50460938 -9.06640625 9.66796875 C-9.70449219 9.77753906 -10.34257812 9.88710937 -11 10 C-9.54144353 6.31353859 -7.69770955 4.83856029 -4.375 2.75 C-3.55773437 2.22921875 -2.74046875 1.7084375 -1.8984375 1.171875 C-1.27195312 0.78515625 -0.64546875 0.3984375 0 0 Z " fill="#EEDAAF" transform="translate(449,157)"/>
<path d="M0 0 C0 0.33 0 0.66 0 1 C-1.98 1 -3.96 1 -6 1 C-6 1.66 -6 2.32 -6 3 C-10.53701494 4.45184478 -14.18061476 5.23509196 -19 5 C-12.83432006 -0.02388736 -7.71255046 -0.26956487 0 0 Z " fill="#C4B8A0" transform="translate(227,82)"/>
<path d="M0 0 C0.66 0.33 1.32 0.66 2 1 C1 4 1 4 -0.8125 5.75 C-3.57241345 8.58876812 -5.12510819 11.51805806 -7 15 C-8.06546953 11.8035914 -8.07427838 9.34252724 -8 6 C-7.34 6 -6.68 6 -6 6 C-5.67 5.01 -5.34 4.02 -5 3 C-4.01 3 -3.02 3 -2 3 C-1.34 2.01 -0.68 1.02 0 0 Z " fill="#F0DFAF" transform="translate(105,55)"/>
<path d="M0 0 C0 0.66 0 1.32 0 2 C-1.98 2.66 -3.96 3.32 -6 4 C-5.67 4.99 -5.34 5.98 -5 7 C-6.97420135 9.52259061 -7.96745642 9.9929808 -11.1875 10.6875 C-12.5796875 10.8421875 -12.5796875 10.8421875 -14 11 C-13.25 9.0625 -13.25 9.0625 -12 7 C-10.67405895 6.63837971 -9.34061543 6.30271961 -8 6 C-7.67 5.01 -7.34 4.02 -7 3 C-2.66666667 0 -2.66666667 0 0 0 Z " fill="#D0C09F" transform="translate(98,5)"/>
<path d="M0 0 C0.33 0.66 0.66 1.32 1 2 C0.34 2 -0.32 2 -1 2 C-1 3.65 -1 5.3 -1 7 C-10.41002278 9.11161731 -10.41002278 9.11161731 -15 10 C-11.79153846 7.45996795 -8.38074288 5.3267149 -4.90234375 3.18359375 C-3.24796248 2.15427645 -1.6212114 1.0808076 0 0 Z " fill="#EEDAB4" transform="translate(267,130)"/>
<path d="M0 0 C2.23775292 1.00313062 3.8507388 1.84476835 5.5625 3.625 C7.02978279 5.34561132 7.02978279 5.34561132 10 5 C10.66 5.66 11.32 6.32 12 7 C11.625 10.125 11.625 10.125 11 13 C10.484375 12.319375 9.96875 11.63875 9.4375 10.9375 C6.9183496 7.9016008 4.22408896 5.19134647 1.390625 2.453125 C0 1 0 1 0 0 Z " fill="#F1DEAF" transform="translate(378,22)"/>
<path d="M0 0 C0.66 0.99 1.32 1.98 2 3 C1.125 5.6875 1.125 5.6875 0 8 C-2.64 8 -5.28 8 -8 8 C-8.33 5.69 -8.66 3.38 -9 1 C-8.566875 1.66 -8.13375 2.32 -7.6875 3 C-6.8521875 3.99 -6.8521875 3.99 -6 5 C-5.01 5 -4.02 5 -3 5 C-1.28288757 2.55503957 -1.28288757 2.55503957 0 0 Z " fill="#D2BD95" transform="translate(218,168)"/>
<path d="M0 0 C0.33 0.66 0.66 1.32 1 2 C2.32 1.67 3.64 1.34 5 1 C5.33 1.66 5.66 2.32 6 3 C5.00097656 3.19335938 4.00195312 3.38671875 2.97265625 3.5859375 C1.68230469 3.84632812 0.39195312 4.10671875 -0.9375 4.375 C-2.22527344 4.63023438 -3.51304687 4.88546875 -4.83984375 5.1484375 C-5.88269531 5.42945312 -6.92554688 5.71046875 -8 6 C-8.33 6.66 -8.66 7.32 -9 8 C-9 6.33333333 -9 4.66666667 -9 3 C-7.35 3 -5.7 3 -4 3 C-3.67 2.34 -3.34 1.68 -3 1 C-2.01 0.67 -1.02 0.34 0 0 Z " fill="#F1DCAC" transform="translate(403,97)"/>
<path d="M0 0 C0.99 0.33 1.98 0.66 3 1 C0.83579907 3.5675875 -1.33273479 5.94866953 -4 8 C-7.25 8 -7.25 8 -10 7 C-10.99 6.67 -11.98 6.34 -13 6 C-13 5.34 -13 4.68 -13 4 C-11.35 3.67 -9.7 3.34 -8 3 C-7.67 4.32 -7.34 5.64 -7 7 C-6.030625 6.21625 -5.06125 5.4325 -4.0625 4.625 C-3.51722656 4.18414062 -2.97195312 3.74328125 -2.41015625 3.2890625 C-0.86733563 2.0333609 -0.86733563 2.0333609 0 0 Z " fill="#D2BC8E" transform="translate(152,134)"/>
<path d="M0 0 C1.32728846 2.65457692 1.69347955 5.0574037 2 8 C0 10 0 10 -3 12 C-3.66 12.99 -4.32 13.98 -5 15 C-4.43174347 9.45949887 -2.37113483 4.96284034 0 0 Z " fill="#EFD9AE" transform="translate(143,255)"/>
<path d="M0 0 C0.66 0 1.32 0 2 0 C2 5.28 2 10.56 2 16 C-0.29633824 12.55549263 -0.54016485 10.06187717 -1 6 C-1.99 6.495 -1.99 6.495 -3 7 C-1.125 2.25 -1.125 2.25 0 0 Z " fill="#C1A985" transform="translate(171,112)"/>
<path d="M0 0 C-1.32 0.33 -2.64 0.66 -4 1 C-4 1.66 -4 2.32 -4 3 C-4.99 3.495 -4.99 3.495 -6 4 C-5.67 4.66 -5.34 5.32 -5 6 C-7.31 5.67 -9.62 5.34 -12 5 C-12 4.01 -12 3.02 -12 2 C-7.82262526 0.40861915 -4.46839215 -0.21278058 0 0 Z " fill="#EFD8AB" transform="translate(116,1)"/>
<path d="M0 0 C3.20078172 2.52693294 6.11887921 5.11887921 9 8 C8.34 8 7.68 8 7 8 C6.67 8.99 6.34 9.98 6 11 C1.9957657 7.50912907 0.37328935 5.35048061 0 0 Z " fill="#EDDAAA" transform="translate(136,308)"/>
<path d="M0 0 C0.33 0 0.66 0 1 0 C2.25 6.625 2.25 6.625 0 10 C0.66 10 1.32 10 2 10 C2 10.66 2 11.32 2 12 C-0.82119614 10.96556141 -1.84496198 10.26779294 -3.375 7.625 C-4 5 -4 5 -3.125 2.6875 C-2.75375 2.130625 -2.3825 1.57375 -2 1 C-1.67 1.33 -1.34 1.66 -1 2 C-0.67 1.34 -0.34 0.68 0 0 Z " fill="#F2D8A9" transform="translate(14,146)"/>
<path d="M0 0 C0.66 0.66 1.32 1.32 2 2 C-3.89895571 6.0449982 -10.07303328 5.27748976 -17 5 C-14.15604222 3.4041547 -13.0142871 2.99973542 -9.625 3.0625 C-5.60274255 2.99315073 -3.43311381 2.00962759 0 0 Z " fill="#F3D8B2" transform="translate(225,181)"/>
<path d="M0 0 C0.66 1.32 1.32 2.64 2 4 C3.485 3.7834375 3.485 3.7834375 5 3.5625 C8.99409465 2.99074821 12.99532937 2.49180166 17 2 C14.77682992 4.55664559 13.31154106 5.3936615 10 6 C8.25113019 6.06624507 6.49997252 6.08552595 4.75 6.0625 C3.85796875 6.05347656 2.9659375 6.04445312 2.046875 6.03515625 C1.37140625 6.02355469 0.6959375 6.01195312 0 6 C0 4.02 0 2.04 0 0 Z " fill="#F4E0BB" transform="translate(437,167)"/>
<path d="M0 0 C1 3 1 3 0.22265625 4.82421875 C-0.8515625 6.54947917 -1.92578125 8.27473958 -3 10 C-3.66 10 -4.32 10 -5 10 C-5.66 8.35 -6.32 6.7 -7 5 C-6.030625 4.54625 -5.06125 4.0925 -4.0625 3.625 C-0.92920418 2.34213779 -0.92920418 2.34213779 0 0 Z " fill="#EFDAAE" transform="translate(192,292)"/>
<path d="M0 0 C3.73884332 2.65654657 5.64978174 4.58110387 7 9 C6.38125 8.67 5.7625 8.34 5.125 8 C3.08981656 6.85806765 3.08981656 6.85806765 1 7 C0.01 7.66 -0.98 8.32 -2 9 C-1.67 7.88625 -1.34 6.7725 -1 5.625 C0.088643 2.30540283 0.088643 2.30540283 0 0 Z " fill="#F0DDAD" transform="translate(314,123)"/>
<path d="M0 0 C1.46022163 0.95545366 2.91811468 1.91446678 4.375 2.875 C5.18710938 3.40867187 5.99921875 3.94234375 6.8359375 4.4921875 C9 6 9 6 11 8 C9.35 8 7.7 8 6 8 C5.67 8.66 5.34 9.32 5 10 C5.66 10.33 6.32 10.66 7 11 C6.01 11.33 5.02 11.66 4 12 C3.54427083 10.046875 3.08854167 8.09375 2.6328125 6.140625 C1.97942104 3.93038723 1.08693753 2.02773221 0 0 Z " fill="#D6C29D" transform="translate(136,324)"/>
<path d="M0 0 C0.99 0.33 1.98 0.66 3 1 C3 1.66 3 2.32 3 3 C2.34 3 1.68 3 1 3 C0.731875 3.61875 0.46375 4.2375 0.1875 4.875 C-1 7 -1 7 -4 9 C-4 6.32115341 -3.88590541 4.49664253 -3 2 C-2.01 1.34 -1.02 0.68 0 0 Z " fill="#E8D5AF" transform="translate(371,275)"/>
<path d="M0 0 C0.33 0 0.66 0 1 0 C1.61914875 3.44954305 1.3542827 5.45392516 -0.55859375 8.40234375 C-2.32308545 10.64967423 -4.12335402 12.84568701 -6 15 C-6.33 14.34 -6.66 13.68 -7 13 C-6.67 12.34 -6.34 11.68 -6 11 C-5.34 11 -4.68 11 -4 11 C-3.896875 10.29875 -3.79375 9.5975 -3.6875 8.875 C-2.90640997 5.60862353 -1.57941257 2.9528148 0 0 Z " fill="#ECDBB2" transform="translate(381,257)"/>
<path d="M0 0 C-0.639375 0.20625 -1.27875 0.4125 -1.9375 0.625 C-2.618125 1.07875 -3.29875 1.5325 -4 2 C-4.38133299 3.9914056 -4.71325582 5.99279077 -5 8 C-6.5625 9.875 -6.5625 9.875 -8 11 C-7.979375 10.071875 -7.95875 9.14375 -7.9375 8.1875 C-7.84230396 4.97713989 -7.84230396 4.97713989 -9 2 C-5.5647952 -0.29013653 -4.014669 -0.17842973 0 0 Z " fill="#E0CBA8" transform="translate(252,152)"/>
<path d="M0 0 C1.43410153 3.78819273 0.51009497 6.06521279 -0.9375 9.75 C-1.31777344 10.73484375 -1.69804687 11.7196875 -2.08984375 12.734375 C-2.39019531 13.48203125 -2.69054687 14.2296875 -3 15 C-4 12 -4 12 -4 10 C-4.66 10 -5.32 10 -6 10 C-5.67 8.35 -5.34 6.7 -5 5 C-3.02 5.495 -3.02 5.495 -1 6 C-0.67 4.02 -0.34 2.04 0 0 Z " fill="#C5B794" transform="translate(472,141)"/>
<path d="M0 0 C0.99 0.33 1.98 0.66 3 1 C2.67 3.31 2.34 5.62 2 8 C1.34 8 0.68 8 0 8 C0 8.99 0 9.98 0 11 C-0.66 11 -1.32 11 -2 11 C-1.125 3.375 -1.125 3.375 0 0 Z " fill="#F0D7AD" transform="translate(4,113)"/>
<path d="M0 0 C2.68872443 2.35649699 3.9193851 4.63578765 5.25 7.9375 C5.78367187 9.21947266 5.78367187 9.21947266 6.328125 10.52734375 C7.04658772 13.17145366 6.91982605 14.45868571 6 17 C6 16.01 6 15.02 6 14 C5.01 13.67 4.02 13.34 3 13 C2.3046875 11.07421875 2.3046875 11.07421875 1.875 8.6875 C1.72804688 7.90761719 1.58109375 7.12773438 1.4296875 6.32421875 C1.28789062 5.55722656 1.14609375 4.79023437 1 4 C0.6768501 2.66416205 0.34692071 1.32986274 0 0 Z " fill="#D1BEA1" transform="translate(467,104)"/>
<path d="M0 0 C0.33 0.66 0.66 1.32 1 2 C-0.3125 4.625 -0.3125 4.625 -2 7 C-2.66 7 -3.32 7 -4 7 C-4.99 8.98 -5.98 10.96 -7 13 C-7.66 11.68 -8.32 10.36 -9 9 C-6.03 6.03 -3.06 3.06 0 0 Z " fill="#ECD8B0" transform="translate(207,89)"/>
<path d="M0 0 C1.32 0.99 2.64 1.98 4 3 C4.66 2.67 5.32 2.34 6 2 C8.79593783 3.39796892 8.95173777 5.13474989 10 8 C10.33 8.66 10.66 9.32 11 10 C8.06120516 8.64763423 5.70767089 7.10057341 3.25 5 C2.63640625 4.484375 2.0228125 3.96875 1.390625 3.4375 C0 2 0 2 0 0 Z " fill="#C5B090" transform="translate(79,316)"/>
<path d="M0 0 C0.33 0.66 0.66 1.32 1 2 C0.67 2.99 0.34 3.98 0 5 C-6.11111111 8 -6.11111111 8 -9 8 C-8.67 6.68 -8.34 5.36 -8 4 C-8 4.66 -8 5.32 -8 6 C-5.36 4.02 -2.72 2.04 0 0 Z " fill="#C6AE97" transform="translate(333,130)"/>
<path d="M0 0 C0 5.61 0 11.22 0 17 C-1.93395001 13.13209997 -2.23289353 11.8499541 -2.125 7.75 C-2.10695313 6.85796875 -2.08890625 5.9659375 -2.0703125 5.046875 C-2.03550781 4.03367187 -2.03550781 4.03367187 -2 3 C-3.98 3 -5.96 3 -8 3 C-5.36657694 0.36657694 -3.69534435 0 0 0 Z " fill="#F6E1B3" transform="translate(406,109)"/>
<path d="M0 0 C1.32 0.33 2.64 0.66 4 1 C4 1.99 4 2.98 4 4 C2.88625 4.474375 1.7725 4.94875 0.625 5.4375 C-1.26710994 6.25306463 -3.15712709 7.07856355 -5 8 C-3.62845496 5.04590299 -2.01136276 2.55991624 0 0 Z " fill="#D0BD9F" transform="translate(169,95)"/>
<path d="M0 0 C-0.99 1.485 -0.99 1.485 -2 3 C-1.34 3.66 -0.68 4.32 0 5 C-3.375 5.1875 -3.375 5.1875 -7 5 C-7.66 4.01 -8.32 3.02 -9 2 C-3.375 -1.125 -3.375 -1.125 0 0 Z " fill="#EEDAAD" transform="translate(295,145)"/>
<path d="M0 0 C0 3 0 3 -2.3125 5.6875 C-5 8 -5 8 -8 8 C-8.33 7.01 -8.66 6.02 -9 5 C-8.01 4.67 -7.02 4.34 -6 4 C-5.67 3.34 -5.34 2.68 -5 2 C-3.35636866 1.27840576 -1.68949614 0.60648579 0 0 Z " fill="#EFD5AA" transform="translate(331,135)"/>
<path d="M0 0 C2 1 2 1 3 3 C1.2984375 3.680625 1.2984375 3.680625 -0.4375 4.375 C-4.04721692 5.57095806 -4.04721692 5.57095806 -5 8 C-5.66 7.67 -6.32 7.34 -7 7 C-6.875 5.1875 -6.875 5.1875 -6 3 C-3.0625 1.1875 -3.0625 1.1875 0 0 Z " fill="#DFD1A9" transform="translate(331,311)"/>
<path d="M0 0 C0.66 0 1.32 0 2 0 C2.36630156 3.93774177 2.30233203 5.56539771 0 8.875 C-0.66 9.57625 -1.32 10.2775 -2 11 C-2.92817192 7.37169157 -3.26901295 5.58926645 -1.6875 2.125 C-0.8521875 1.073125 -0.8521875 1.073125 0 0 Z " fill="#E3D4AA" transform="translate(392,224)"/>
<path d="M0 0 C2.02054804 1.64169528 4.02043058 3.30911778 6 5 C6 5.33 6 5.66 6 6 C-1.75 5.25 -1.75 5.25 -4 3 C-2.68 2.01 -1.36 1.02 0 0 Z " fill="#EDD4AB" transform="translate(39,168)"/>
<path d="M0 0 C0.66 0.33 1.32 0.66 2 1 C1.01 1.33 0.02 1.66 -1 2 C-1.33 3.65 -1.66 5.3 -2 7 C-2.66 7 -3.32 7 -4 7 C-4 7.33 -4 7.66 -4 8 C-5.65 8 -7.3 8 -9 8 C-6.37347975 4.40069448 -4.06036357 1.92333011 0 0 Z " fill="#F3DEB1" transform="translate(346,122)"/>
<path d="M0 0 C1.1919204 3.57576119 0.74829813 4.29182952 -0.75 7.625 C-1.09546875 8.42164062 -1.4409375 9.21828125 -1.796875 10.0390625 C-3 12 -3 12 -6 13 C-5.690625 12.278125 -5.38125 11.55625 -5.0625 10.8125 C-3.92563225 8.07935171 -3.92563225 8.07935171 -3.5625 5.375 C-2.92812446 2.69652548 -2.09086471 1.72723607 0 0 Z " fill="#E9D6B6" transform="translate(279,111)"/>
<path d="M0 0 C2.50037734 2.17424117 3.43628586 3.73045798 4 7 C3.01 7.66 2.02 8.32 1 9 C0.01 8.01 -0.98 7.02 -2 6 C-1.67 5.38125 -1.34 4.7625 -1 4.125 C0.14193235 2.08981656 0.14193235 2.08981656 0 0 Z " fill="#EDD9AD" transform="translate(163,102)"/>
<path d="M0 0 C-1.39332574 3.36720387 -2.9789286 4.9859524 -6 7 C-6.66 6.67 -7.32 6.34 -8 6 C-4.61538462 0 -4.61538462 0 0 0 Z " fill="#D3C29F" transform="translate(183,311)"/>
<path d="M0 0 C2.63382667 2.49634671 3.96659556 4.46920151 5 8 C4.625 10.3125 4.625 10.3125 4 12 C3.34 11.67 2.68 11.34 2 11 C1.3671875 8.49609375 1.3671875 8.49609375 0.875 5.4375 C0.70742188 4.42558594 0.53984375 3.41367187 0.3671875 2.37109375 C0.24601562 1.58863281 0.12484375 0.80617188 0 0 Z " fill="#EFDAAB" transform="translate(400,25)"/>
<path d="M0 0 C-1.43011973 0.86646667 -2.86940619 1.71781829 -4.3125 2.5625 C-5.51326172 3.27599609 -5.51326172 3.27599609 -6.73828125 4.00390625 C-9 5 -9 5 -12 4 C-4.78350515 -2.39175258 -4.78350515 -2.39175258 0 0 Z " fill="#F1DCAE" transform="translate(150,24)"/>
<path d="M0 0 C0.66 0 1.32 0 2 0 C2 0.66 2 1.32 2 2 C2.66 2.33 3.32 2.66 4 3 C0.91111478 5.05925681 0.29064073 5.2390374 -3.1875 5.125 C-5.0746875 5.063125 -5.0746875 5.063125 -7 5 C-7 4.34 -7 3.68 -7 3 C-3.535 2.505 -3.535 2.505 0 2 C0 1.34 0 0.68 0 0 Z " fill="#EBD5AE" transform="translate(368,332)"/>
<path d="M0 0 C1.65 0.33 3.3 0.66 5 1 C5 1.66 5 2.32 5 3 C5.99 3.66 6.98 4.32 8 5 C5.03 5 2.06 5 -1 5 C-0.67 3.35 -0.34 1.7 0 0 Z " fill="#EED6A7" transform="translate(142,331)"/>
<path d="M0 0 C-1.59766103 0.86627399 -3.20339944 1.71766465 -4.8125 2.5625 C-5.70582031 3.03816406 -6.59914063 3.51382813 -7.51953125 4.00390625 C-10 5 -10 5 -13 4 C-9.80252047 -0.13791468 -4.89181987 -1.63060662 0 0 Z " fill="#C8B798" transform="translate(115,162)"/>
<path d="M0 0 C0.66 0.33 1.32 0.66 2 1 C3.52542373 6.94915254 3.52542373 6.94915254 2 10 C0.68 8.02 -0.64 6.04 -2 4 C-1.34 2.68 -0.68 1.36 0 0 Z " fill="#D4BD95" transform="translate(9,146)"/>
<path d="M0 0 C0.33 0 0.66 0 1 0 C0.88590318 2.10478604 0.75834639 4.20884577 0.625 6.3125 C0.52058594 8.07013672 0.52058594 8.07013672 0.4140625 9.86328125 C0 13 0 13 -2 16 C-1.979375 14.9275 -1.95875 13.855 -1.9375 12.75 C-1.9857984 9.85209576 -2.13155885 7.71387859 -3 5 C-2.01 5 -1.02 5 0 5 C0 3.35 0 1.7 0 0 Z " fill="#C6B595" transform="translate(475,125)"/>
<path d="M0 0 C0.66 0.33 1.32 0.66 2 1 C-2.625 5.875 -2.625 5.875 -6 7 C-6 7.66 -6 8.32 -6 9 C-6.99 8.67 -7.98 8.34 -9 8 C-6.37347975 4.40069448 -4.06036357 1.92333011 0 0 Z " fill="#EBD4AF" transform="translate(26,87)"/>
<path d="M0 0 C0.66 0.33 1.32 0.66 2 1 C2 1.99 2 2.98 2 4 C2.99 5.485 2.99 5.485 4 7 C3.01 7.33 2.02 7.66 1 8 C0.67 7.34 0.34 6.68 0 6 C-3.02934491 5.34227572 -3.02934491 5.34227572 -6 5 C-6 4.67 -6 4.34 -6 4 C-4.35 4 -2.7 4 -1 4 C-1.33 3.01 -1.66 2.02 -2 1 C-1.34 0.67 -0.68 0.34 0 0 Z " fill="#F1DBA9" transform="translate(307,86)"/>
<path d="M0 0 C1.33333333 0.66666667 2.66666667 1.33333333 4 2 C4 2.66 4 3.32 4 4 C3.34 4.66 2.68 5.32 2 6 C1.67 6.66 1.34 7.32 1 8 C0.34 8 -0.32 8 -1 8 C-1.625 5.6875 -1.625 5.6875 -2 3 C-1.34 2.01 -0.68 1.02 0 0 Z " fill="#F1DAAA" transform="translate(114,40)"/>
<path d="M0 0 C0.66 0.33 1.32 0.66 2 1 C1.67 2.65 1.34 4.3 1 6 C0.4225 6.12375 -0.155 6.2475 -0.75 6.375 C-3.02612206 7.00725613 -4.90760206 7.91863468 -7 9 C-6.57847656 8.51789063 -6.15695312 8.03578125 -5.72265625 7.5390625 C-5.17480469 6.90742188 -4.62695312 6.27578125 -4.0625 5.625 C-3.51722656 4.99851562 -2.97195313 4.37203125 -2.41015625 3.7265625 C-0.93041376 2.04367666 -0.93041376 2.04367666 0 0 Z " fill="#CCBFA1" transform="translate(359,288)"/>
<path d="M0 0 C0.66 0.33 1.32 0.66 2 1 C1.75 3.375 1.75 3.375 1 6 C-1 7.125 -1 7.125 -3 8 C-3.33 8.99 -3.66 9.98 -4 11 C-4.33 9.68 -4.66 8.36 -5 7 C-4.0409375 6.6596875 -4.0409375 6.6596875 -3.0625 6.3125 C-0.72806339 5.14749104 -0.72806339 5.14749104 -0.25 2.375 C-0.1675 1.59125 -0.085 0.8075 0 0 Z " fill="#EFDAAA" transform="translate(372,102)"/>
<path d="M0 0 C1 3 1 3 1 5 C0.34 5 -0.32 5 -1 5 C-1 5.99 -1 6.98 -1 8 C-2.32 8.33 -3.64 8.66 -5 9 C-5 5 -5 5 -2.5 2.25 C-1.675 1.5075 -0.85 0.765 0 0 Z " fill="#EEDAB1" transform="translate(13,98)"/>
<path d="M0 0 C2.00720923 0.28674418 4.0085944 0.61866701 6 1 C6 1.66 6 2.32 6 3 C6.639375 3.28875 7.27875 3.5775 7.9375 3.875 C10 5 10 5 11 7 C10.38125 6.649375 9.7625 6.29875 9.125 5.9375 C8.073125 5.4734375 8.073125 5.4734375 7 5 C6.01 5.495 6.01 5.495 5 6 C4.38125 5.360625 3.7625 4.72125 3.125 4.0625 C1.17402388 1.96116416 1.17402388 1.96116416 -1 1 C-0.67 0.67 -0.34 0.34 0 0 Z " fill="#EEDBAB" transform="translate(228,85)"/>
<path d="M0 0 C0.33 0 0.66 0 1 0 C1 2.31 1 4.62 1 7 C2.65 6.67 4.3 6.34 6 6 C6 6.66 6 7.32 6 8 C4.02 8.99 4.02 8.99 2 10 C0.4375 8.9375 0.4375 8.9375 -1 7 C-0.6875 3.3125 -0.6875 3.3125 0 0 Z " fill="#A78570" transform="translate(393,74)"/>
<path d="M0 0 C0.99 0.33 1.98 0.66 3 1 C2.67 3.64 2.34 6.28 2 9 C0.68 8.67 -0.64 8.34 -2 8 C-1.34 5.36 -0.68 2.72 0 0 Z " fill="#EEDAB4" transform="translate(403,291)"/>
<path d="M0 0 C0.66 0.33 1.32 0.66 2 1 C1.67 2.32 1.34 3.64 1 5 C-0.98 5.33 -2.96 5.66 -5 6 C-4.67 4.68 -4.34 3.36 -4 2 C-2.68 2 -1.36 2 0 2 C0 1.34 0 0.68 0 0 Z " fill="#F3D9A7" transform="translate(101,162)"/>
<path d="M0 0 C-5.14285714 5.57142857 -5.14285714 5.57142857 -9 6 C-9 3 -9 3 -7.3125 1.3125 C-4.6402007 -0.20421041 -3.02346601 -0.2519555 0 0 Z " fill="#F1DCB1" transform="translate(268,143)"/>
<path d="M0 0 C1.32 0.66 2.64 1.32 4 2 C4 2.99 4 3.98 4 5 C2.02 5.33 0.04 5.66 -2 6 C-1.34 4.02 -0.68 2.04 0 0 Z " fill="#E9D19A" transform="translate(342,136)"/>
<path d="M0 0 C-0.35049575 3.24208567 -0.56221181 4.61527704 -3.0625 6.8125 C-3.701875 7.204375 -4.34125 7.59625 -5 8 C-5.1875 5.125 -5.1875 5.125 -5 2 C-2 0 -2 0 0 0 Z " fill="#E4D5AE" transform="translate(111,50)"/>
<path d="M0 0 C1.98 0 3.96 0 6 0 C2.88983545 3.28788824 -0.01618925 5.83735988 -4 8 C-2.25 4.125 -2.25 4.125 0 3 C0 2.01 0 1.02 0 0 Z " fill="#D2C09C" transform="translate(129,32)"/>
<path d="M0 0 C0.99 0.33 1.98 0.66 3 1 C2.74438677 3.3431213 2.40729228 5.67843403 2 8 C1.01 8.495 1.01 8.495 0 9 C-0.82638376 6.10765685 -1 4.11257569 -1 1 C-0.67 0.67 -0.34 0.34 0 0 Z " fill="#F2DBAE" transform="translate(194,278)"/>
<path d="M0 0 C2.6875 -0.3125 2.6875 -0.3125 5 0 C3.8553125 1.11375 3.8553125 1.11375 2.6875 2.25 C0.04428801 4.823554 0.04428801 4.823554 -1.6875 7.3125 C-2.3371875 8.1478125 -2.3371875 8.1478125 -3 9 C-3.66 9 -4.32 9 -5 9 C-4.35330586 7.65686601 -3.68096422 6.32608822 -3 5 C-2.3503125 3.63875 -2.3503125 3.63875 -1.6875 2.25 C-1.130625 1.5075 -0.57375 0.765 0 0 Z " fill="#F3DBB8" transform="translate(207,153)"/>
<path d="M0 0 C2.31 0 4.62 0 7 0 C7 0.66 7 1.32 7 2 C5.35 2.33 3.7 2.66 2 3 C1.67 4.32 1.34 5.64 1 7 C0.67 7 0.34 7 0 7 C0 4.69 0 2.38 0 0 Z " fill="#C4B756" transform="translate(328,147)"/>
<path d="M0 0 C8.57142857 3 8.57142857 3 12 6 C11.01 6.33 10.02 6.66 9 7 C8.62875 6.54625 8.2575 6.0925 7.875 5.625 C5.45735315 3.52970606 3.04569398 2.87986715 0 2 C0 1.34 0 0.68 0 0 Z " fill="#F0DAB2" transform="translate(441,85)"/>
<path d="M0 0 C2.31 0 4.62 0 7 0 C7 0.66 7 1.32 7 2 C9.97 2.495 9.97 2.495 13 3 C13 3.33 13 3.66 13 4 C8.28596212 3.52060632 4.33420699 3.03165952 0 1 C0 0.67 0 0.34 0 0 Z " fill="#E0CCB0" transform="translate(428,82)"/>
<path d="M0 0 C0.66 0 1.32 0 2 0 C2 2.97 2 5.94 2 9 C1.34 9 0.68 9 0 9 C0 7.02 0 5.04 0 3 C-0.66 2.67 -1.32 2.34 -2 2 C-1.34 1.34 -0.68 0.68 0 0 Z M-2 8 C-1.34 8.66 -0.68 9.32 0 10 C-0.66 10 -1.32 10 -2 10 C-2 9.34 -2 8.68 -2 8 Z " fill="#E5D19A" transform="translate(151,242)"/>
<path d="M0 0 C0.33 0 0.66 0 1 0 C1 2.31 1 4.62 1 7 C0.01 7.495 0.01 7.495 -1 8 C-3.1385485 5.8614515 -3.42655063 4.86724686 -4 2 C-3.01 2.33 -2.02 2.66 -1 3 C-0.67 2.01 -0.34 1.02 0 0 Z " fill="#CEBC8B" transform="translate(204,177)"/>
<path d="M0 0 C2.64 0 5.28 0 8 0 C8.33 0.99 8.66 1.98 9 3 C9.66 3 10.32 3 11 3 C10.67 3.66 10.34 4.32 10 5 C5.05 3.02 5.05 3.02 0 1 C0 0.67 0 0.34 0 0 Z " fill="#F0DCB2" transform="translate(430,97)"/>
<path d="M0 0 C2.375 0.25 2.375 0.25 5 1 C6.3125 3.0625 6.3125 3.0625 7 5 C3.47967572 5 2.5614657 4.29648649 0 2 C0 1.34 0 0.68 0 0 Z " fill="#EAD7AD" transform="translate(101,311)"/>
<path d="M0 0 C0.99 0.66 1.98 1.32 3 2 C1.73392393 2.53229326 0.46189588 3.05044544 -0.8125 3.5625 C-1.52019531 3.85253906 -2.22789063 4.14257812 -2.95703125 4.44140625 C-5 5 -5 5 -8 4 C-5.36 2.68 -2.72 1.36 0 0 Z " fill="#EFD8AC" transform="translate(90,168)"/>
<path d="M0 0 C1.65 0 3.3 0 5 0 C2.6875 2.5 2.6875 2.5 0 5 C-0.99 5 -1.98 5 -3 5 C-3 4.34 -3 3.68 -3 3 C-2.34 3 -1.68 3 -1 3 C-0.67 2.01 -0.34 1.02 0 0 Z " fill="#D8C4AA" transform="translate(457,165)"/>
<path d="M0 0 C2.64 0 5.28 0 8 0 C8 0.66 8 1.32 8 2 C8.99 2.33 9.98 2.66 11 3 C7.7 3 4.4 3 1 3 C0.67 2.01 0.34 1.02 0 0 Z " fill="#F1D9B3" transform="translate(47,157)"/>
<path d="M0 0 C0.99 0 1.98 0 3 0 C2.42647107 3.87132028 0.51295648 6.08172796 -2 9 C-2.66 8.67 -3.32 8.34 -4 8 C-3.525625 7.608125 -3.05125 7.21625 -2.5625 6.8125 C-0.64820367 4.59191626 -0.38733012 2.86624291 0 0 Z " fill="#CBB48D" transform="translate(277,131)"/>
<path d="M0 0 C1.9375 0.3125 1.9375 0.3125 4 1 C4.33 1.99 4.66 2.98 5 4 C4.67 4.66 4.34 5.32 4 6 C3.01 5.67 2.02 5.34 1 5 C0.67 3.35 0.34 1.7 0 0 Z " fill="#EFDAAB" transform="translate(289,128)"/>
<path d="M0 0 C0.33 0 0.66 0 1 0 C1.2493357 1.60115576 1.47378648 3.20620159 1.6875 4.8125 C1.87892578 6.15248047 1.87892578 6.15248047 2.07421875 7.51953125 C2 10 2 10 -1 13 C-0.67 8.71 -0.34 4.42 0 0 Z " fill="#F2DAB2" transform="translate(199,261)"/>
<path d="M0 0 C1.7074998 1.28062485 3.37373596 2.61767557 5 4 C5 4.66 5 5.32 5 6 C2.69 6 0.38 6 -2 6 C-1.01 5.01 -0.02 4.02 1 3 C0.67 2.01 0.34 1.02 0 0 Z " fill="#A79070" transform="translate(293,138)"/>
<path d="M0 0 C0.33 0 0.66 0 1 0 C2.42857143 8.57142857 2.42857143 8.57142857 0 12 C-1.91384609 8.49128216 -2.04276246 7.18632214 -1.125 3.1875 C-0.75375 2.135625 -0.3825 1.08375 0 0 Z " fill="#F5DCA8" transform="translate(20,107)"/>
<path d="M0 0 C0.99 0.99 1.98 1.98 3 3 C2.67 3.66 2.34 4.32 2 5 C0.35 4.67 -1.3 4.34 -3 4 C-3 3.01 -3 2.02 -3 1 C-2.01 0.67 -1.02 0.34 0 0 Z " fill="#D8C9A4" transform="translate(372,16)"/>
<path d="M0 0 C0.66 0 1.32 0 2 0 C2.103125 0.639375 2.20625 1.27875 2.3125 1.9375 C2.539375 2.618125 2.76625 3.29875 3 4 C3.99 4.33 4.98 4.66 6 5 C5.67 5.99 5.34 6.98 5 8 C2.2175651 6.60878255 1.44789935 4.69835788 0 2 C0 1.34 0 0.68 0 0 Z " fill="#EAD9B1" transform="translate(86,289)"/>
<path d="M0 0 C0.598125 0.20625 1.19625 0.4125 1.8125 0.625 C0.5625 2.125 0.5625 2.125 -1.1875 3.625 C-2.5075 3.625 -3.8275 3.625 -5.1875 3.625 C-5.1875 2.965 -5.1875 2.305 -5.1875 1.625 C-2.1875 -0.375 -2.1875 -0.375 0 0 Z " fill="#EED7AF" transform="translate(257.1875,148.375)"/>
<path d="M0 0 C-0.33 0.99 -0.66 1.98 -1 3 C-2.65 3 -4.3 3 -6 3 C-6 2.01 -6 1.02 -6 0 C-2.25 -1.125 -2.25 -1.125 0 0 Z " fill="#E3D1AC" transform="translate(229,83)"/>
<path d="M0 0 C1.32 0.33 2.64 0.66 4 1 C1.68055212 4.47917182 -0.26369964 5.29429766 -4 7 C-2.79618552 4.50638429 -1.54571278 2.31856917 0 0 Z " fill="#F3E3B3" transform="translate(123,36)"/>
<path d="M0 0 C2.97 0 5.94 0 9 0 C9 0.99 9 1.98 9 3 C7.68 3.33 6.36 3.66 5 4 C5 3.34 5 2.68 5 2 C4.01 2.33 3.02 2.66 2 3 C2 2.34 2 1.68 2 1 C1.34 0.67 0.68 0.34 0 0 Z " fill="#EBD9B8" transform="translate(360,1)"/>
<path d="M0 0 C1.98 0 3.96 0 6 0 C3.82575883 2.50037734 2.26954202 3.43628586 -1 4 C-0.67 2.68 -0.34 1.36 0 0 Z " fill="#DBC69F" transform="translate(169,318)"/>
<path d="M0 0 C1.32 1.32 2.64 2.64 4 4 C2.02 4.33 0.04 4.66 -2 5 C-2.33 4.01 -2.66 3.02 -3 2 C-2.01 2 -1.02 2 0 2 C0 1.34 0 0.68 0 0 Z " fill="#DDCC9F" transform="translate(99,307)"/>
<path d="M0 0 C0.66 0 1.32 0 2 0 C2 1.65 2 3.3 2 5 C0.35 5.33 -1.3 5.66 -3 6 C-1.125 1.125 -1.125 1.125 0 0 Z " fill="#BAA07B" transform="translate(173,225)"/>
<path d="M0 0 C0.66 0.66 1.32 1.32 2 2 C1.34 2.66 0.68 3.32 0 4 C0 5.32 0 6.64 0 8 C-0.66 7.67 -1.32 7.34 -2 7 C-2.625 4.4375 -2.625 4.4375 -3 2 C-2.01 1.34 -1.02 0.68 0 0 Z " fill="#F2E0B1" transform="translate(221,166)"/>
<path d="M0 0 C0 0.99 0 1.98 0 3 C-0.99 3.33 -1.98 3.66 -3 4 C-3.33 4.66 -3.66 5.32 -4 6 C-6 5 -6 5 -7 3 C-2.25 0 -2.25 0 0 0 Z " fill="#F0D9B4" transform="translate(123,141)"/>
</svg>
